/* XPM */
static char *s64a9gqtRL85zZ6_png[] = {
/* columns rows colors chars-per-pixel */
"64 64 6 1 ",
"  c #47ABA9",
". c #161C2E",
"X c #679175",
"o c #79A863",
"O c #9BB94E",
"+ c #BFBA5B",
/* pixels */
"oOOOOO++++++++++ooooooooooooooooooooooooooooooooooooooOOOOOOOOOO",
"OOOOOOO++++++OoooOOOoooooooooooooooooooooXXXXooooooooooooOOOOOOO",
"OOO+++++++++OOOOOOOOOOOOooooooooooooooooXXXXXXoo.....oooooOOOOOO",
"O+++++++++++OOOOOOOoooooooooooooooooXXXoXXXXXXo.......o....OOOO.",
"+++++++++++OOOOOOOOOOooooooooooooooXXXXXXXXXXX...++.........OO..",
"+OOOOO+++++OOOOOOOOOOOOoooooooooooXXXXX++++XXX+++++++..+++......",
"OOOOOOO+++++O++OOOOOOOOOOOOoooooooXXX+++++++XX+++++++++++++.....",
"OOOOOOOOO+++++++OOOOOOOOOOOoooooXXXX++++++++X+++++++++++++++... ",
"+++OOOOOOO+++OOO+OOOOOOOOOOO++++++X++++++++++++++++++++++++.... ",
"++++OOOOOOOOOOOOOOOOOOOOOOO++OO++++++++++++++++++++++++++++++...",
"++++OOO++OOOOOOOOOOOOOOOOOO+OOOO++++++++OOO+++++OO++++OOOO++++..",
"++++OO+++++OOOOOOOOOOOOOOOOOOOOOOOOO+++OOOOO++OOOOOO+OOOOOO+++..",
"++++++++++++++++++++OOOOOOOOOOOOOOOOO++OOOOO+OOOOOOOOOOOOOO+++..",
"O+++++++++OOOOOOOOOOOOOOOOOOOOOOOOOOOOOOOOOO+OOOOOOOOOOOOOO++...",
"OOOOOOOOOOOOOooooooOOOOOOOOOOOOOOOOOOOOOOOOOOOOOOOOOOOOOOOO.... ",
"OOOOOOOOOOOoooooooooOooooOOOOOO+++OOOOOOOOOOOOOOOOOOOOOOOO..... ",
"OOOOOOOOOoooooooooooooooooOOO++++++OOOOOOOOOOoooOOOOOOOOOOO.....",
"OOOOOOOOoooooooooooooooooo+++++++++++++oooOOoooooOOOOOOOOOOOO...",
"OOOOOOooooooOOOOOoooooooooooo+++++++++oooooooOOoooOOOOOOoOOOOO..",
"oOOOoooooooOOOOOOOoooOOOooooooo+++oooooOOoooOOOOoooOOOOooOOOOO..",
"ooOOOOOOOOOOOOOOOOooOOOOOOOOOOOOOOOOOOOOOOOOOOOOOOOOOOooooOOOO. ",
"oooooOOOOOOOOOOOOOOOOOOOOOOOOOOOOOOOOOOooOOOOOooooOOOOooooooo.. ",
"oOOOOOOOOOOOOOOOOOOOOOOOXXXXXXOOOXXXOoooooOooooooooOOooooOOO....",
"OOOOOOOOOXXXXXOOXXXOOO++++XXXXXOXXXXXoooooooooooooooooooOOO.....",
"OOOOOOOOXXXXXXXXXXXXO+++++++XXXXXX++XXooooooooooooooooooOOO..oo.",
"OOOOOOXXX++++XXX++XX+++++++++XXXX++++XX++oooOOooOOOooooOOOO.ooo.",
"OOOXXXX+++++++++++++++++++++++XX++++++++++ooOOOOOOOOooooooooooo.",
"o+XX++++++++++++++++++++ooo++++X++OO++++++++OOOOOOOOoooooooooo..",
"+++++++++++ooo+++++++++ooooo+++++OOOO+++++++++OOOOOOoooooooo... ",
"+OOOOOO++ooooooo++oooooooooooooOOOOOOOOOOO+++OOOOOOooOOOo...... ",
"OOOOOOOOOOOOOoooooooooooooooooooooOOOOOOOOOOOOOOOOOOOOOOOO....  ",
"OOOOOOOOOOOOOOOOOooooooooooooooooooooOOOooooooOOOOOOOOOOOOO.....",
"++++OOOOOOOOOOOOOOOOOoooooooooooooooooooooooooOOOOOOOOOOOOO.....",
"+++++OOOOOOOOOOOOoooooooOOOooooooooooooooo+++oOOOOOOOOOOOO..OO..",
"++++++++OOOOoooooooooooOOOOOoooooooOOOOOO+++++OOOOOOOOOOO..OOOO.",
"+OOO+++++OOOOOOOOOOOOOOOOOOOooooOOOOO++OO++++++OOOOOOOOOOOOOOOO.",
"OOOOO+++++OOOOOOOOOOOOOOOOOOOOOOOOO++++++++++++OOOOOOOOOOOOOOO..",
"OOOOOOOOOOOOOOOOOOOOOOOOOOOOOOOOOO++++++++ooo++++++OOOOOOOOO... ",
"OOOOOOOOOOOOOOOOOOOOOOOOOOOOOOOOOooooooooooooo++++++++++o.....  ",
"OOOOOOOOOOOOOOOOOOOOOOOOOOOOOOOOoooooOOooooooooooooooooooo...   ",
"oooooooooOOOOOOOOOOOOOOOOOOOOooooooOOOOOoooooooooooooooooo....  ",
"oooooOOOOOOOOOOOOOOOOOOOOOOOOOOOOOOOOOOOOOOooooooooooooOOOOO..  ",
"OOOOOOOOOOOOOOOOOOOOOOOOOOOOOOOOOOOOOOOOOOOOoooOOOooooOOOOOOO.. ",
"OOOOOOOOOOOOOOOOOOOXXXXXOOOOXXXXXOOOOOO+++OOooOOOOOoooOOOOOOO.. ",
"OOOOOOOOOOOOOOOOOXXXXXXXXOOXXXXXXXOOOO+++++OooOOOOOooooOOOOOO.. ",
"+OOOOOOOOOOOOOOOXXX+++XXXXXXX++++XXOO++++++++oOOOOooooo..OOO... ",
"+OOOOOXXXXXOOXXXXX++++++XXXX+++++++XO+++++++++OOOOoooooo......  ",
"OOOOOXXXXXXXXXXXXX++++++++X+++++++++++++++++++OOOooooooooo...   ",
"OXXOXXX++XXXXX++XXX++++++++++++++++++++++++++++ooooXooooooo...  ",
"XXXXXX++++XXX+++++X+++++++++++++++++++++++++++++oooXoooooooo..  ",
"XX++XX+++++++++++++++++++++++++OOOO+++++oo++++++ooXXXXoooooo..  ",
"X+++++++++++++++++++++oooo++++OOOOOO+++oooo+++oooXXXXXXooooo..  ",
"++++++OOO+++++OOOO+++ooooooOO+OOOOOOOoooooo+++oooooooXXXXXX...  ",
"+++++OOOOO+++OOOoooooooooooOOOOOOOooooooooo+ooooooooooXX.....   ",
"+++OOOOOO...+OOoooooooooooOOOOOOOoooooooo..ooOOOOooOOooo....    ",
"+OOOOOOOoo...OO..oooooo..oooooOOooooooOOoo..oOOOOO.OOOOOO..     ",
"OOOOO.ooooo.....oooooo..ooooooo.oooooOOOOO..OOOOOO.OOOOOOO..    ",
"OOOOO.oooooo...ooOOOoo..oooooo..oooo.OOOOO...OOOO..OOOOOOO..    ",
"OOOOO.oooooo...oOOOOO...ooooo..ooOOO...OO..........OOOOOOO..    ",
"OOOOO..oooo....oOOOO.....ooo...oOOOOO..............OOOOOO...    ",
"OOOOO...........OOO... .........OOOOO......     ....OOOO...     ",
"OOOO........ ........    ... ....OOO...           ........      ",
"OOO...        ......          .........             .....       ",
".....                          .......                          "
};
