/* XPM */
static char *_a7fdbfb9adf4daba68e6913bee4386f[] = {
/* columns rows colors chars-per-pixel */
"64 64 6 1 ",
"  c #47ABA9",
". c #161C2E",
"X c #679175",
"o c #79A863",
"O c #9BB94E",
"+ c #BFBA5B",
/* pixels */
" ..OOOOOO..+++++oooooooooooooooooooooooooooooooooooooooooooooooo",
"  ........+++OoooOOOoooooooooooooooooooooXXXXoooooooooooooooooOO",
"   .......++OOOOOOOOOOOOooooooooooooooooXXXXXXOOOOOOOOXXXXoooOOO",
"  ........++OOOOOOOoooooooooooooooooXXXoXXXXXXXXXXXOOXXXXXXXoOOO",
" ...oooo..+OOOOOOOOOOooooooooooooooXXXXXXXXXXXXXXXXXXX+++XXXXOOO",
" ..ooooo...OOOOOOOOOOOOoooooooooooXXXXX++++XXXX++++XX+++++XXXX++",
" ..oooooo...oooOOOOOOOOOOOOoooooooXXX+++++++XX+++++++++++++++++O",
" ..ooooooooooooOOOOOOOOOOOOoooooXXXX++++++++X++++++++++++++++++O",
" ..oooooOOOOooooooOOOOOOOOOO++++++X++++++++++++++++++++++++++++O",
" ...oo.OOOOOOOOOOOOOOOOOOOO++OO+++++++++++++++++++++++++++++++++",
" ......++OOOOOOOOOOOOOOOOOO+OOOO++++++++OOO+++++OO++++OO++++++++",
"  ....+++++OOOOOOOOOOOOOOOOOOOOOOOOO+++OOOOO++OOOOOO+OOOO+++++++",
"  ...OO+++++++++++++OOOOOOOOOOOOOOOOO++OOOOO+OOOOOOOOOOOO+++++++",
" ...OOO+++OOOOOOOOOOOOOOOOOOOOOOOOOOOOOOOOOO+OOOOOOOOOOOO+++++OO",
" ..OOOO.OOOOOooooooOOOOOOOOOOOOOOOOOOOOOOOOOOOOOOOOOOOOOOOOOOOOO",
" ..OOO..OOOoooooooooOooooOOOOOO+++OOOOOOOOOOOOOOOOOOOOOOOOOOOOOO",
" ...O...ooooooooooooooooooOOO++++++OOOOOOOOOOoooOOOOOOOOOOOOOOOO",
"  .....ooooooooooooooooooo+++++++++++++oooOOoooooOOOOOOOOOOOOOOO",
"     ..oooooOOOOOoooooooooooo+++++++++oooooooOOoooOOOOOOoooOOOOO",
"     ..oooOOOOOOOOoooOOOooooooo+++oooooOOoooOOOOoooOOOOoooooOOOo",
"     ...OOOOOOOOOOooOOOOOOOOOOOOOOOOOOOOOOOOOOOOOOOOOOoooooooooo",
"    .....OOOOOOOOOOOOOOOOOOOOOOOOOOOOOOooOOOOOooooOOOOoooooooooo",
"   .........OOOOOOOOOOOOXXXXXXOOOXXXOoooooOooooooooOOooooOOOoooo",
"  ....++......OOXXXOOO++++XXXXXOXXXXXoooooooooooooooooooOOOOOOOO",
"  ...++++++.....XXXXO+++++++XXXXXX++XXooooooooooooooooooOOOOOOOO",
"  ..+++++++++++++++++++++++++XXXX++++XX++oooOOooOOOooooOOOOOOOOO",
"  ..++++++++++++++++++++++++++XX++++++++++ooOOOOOOOOooooooooooOO",
"  ..++OOO+++++++++++++++ooo++++X++OO++++++++OOOOOOOOoooooooooooo",
"  ..+OOOOO+ooo+++++++++ooooo+++++OOOO+++++++++OOOOOOooooo+++++++",
"   ..OOOOOoooooo++oooooooooooooOOOOOOOOOOO+++OOOOOOoo+++++++++++",
"   ...OOOOOOOoooooooooooooooooooooOOOOOOOOOOOOOOOOOOOOOOOOOOOOOO",
"    ...OOOOOOOOOOooooooooooooooooooooOOOooooooOOOOOOOOOOOOOOOOOO",
"    ....OOOOOOOOOOOOOoooooooooooooooooooooooooOOOOOOOOOOOOOOOOOO",
"   ......OOOOOOOOoooooooOOOooooooooooooooo+++oOOOOOOOOOOOOOOOOO+",
"  ...+++OOOOoooooooooooOOOOOoooooooOOOOOO+++++OOOOOOOOOOOOO+++++",
"  ..+++++OOOOOOOOOOOOOOOOOOOooooOOOOO++OO++++++OOOOOOOOOOOOOO+++",
"  ..O+++++OOOOOOOOOOOOOOOOOOOOOOOOO++++++++++++OOOOOOOOOOOOOOOO+",
"  ..OOOOOOOOOOOOOOOOOOOOOOOOOOOOOO++++++++ooo++++++OOOOOOOOOOOOO",
"  ...OOOOOOOOOOOOOOOOOOOOOOOOOOOOooooooooooooo++++++++++oooOOOOO",
"   ......OooooooOOOOOOOOOOOOOOOOoooooOOooooooooooooooooooooooooo",
"     ...ooooooooooOOOOOOOOOOOooooooOOOOOoooooooooooooooooooooooo",
"      ..oooooOOOOOOOOOOOOOOOOOOOOOOOOOOOOOOooooooooooooooooooooo",
"     ...++++OOOOOOOOOOOOOOOOOOOOOOOOOOOOOOOOoooOOOOooooooooooooO",
"    ...+++++++OOOOOXXXXXOOOOXXXXXOOOOOO+++OOooOOOOOOoOOOooOOOOOO",
"   ...++++++++XXXXXXXXXXXOOXXXXXXXOOOO+++++OooOOOOOOOOOOOOOOOOOO",
"  ...+++++++++++XXX+++XXXXXXX++++XXOO++++++++ooOOOOOOOOOOOOO++++",
"  ..+++++++++++++O++++++XXXX+++++++XO+++++++++OOOOOOOOO+++++++++",
"  ..++++++++++++OO++++++++X+++++++++++++++++++OOOOOO++++++++++++",
"  ..++++.++++++OO+++++++++++++++++++++++++++++++OOOO++++++++++OO",
"  ..++++.+OOOOOOOO++++++++++++++++++++++++++++++OOOOOOOOOOOOOOOO",
"  ...++...OOOOOOOOO++OOO+++++++OOOO+++++oo+++++++++OOOOOOOOOOOOO",
"   .........OOOOOOOO+OOOo+++++OOOOOO+++oooo+++++++++OOOOOOOO++XX",
"     .....OOOOoOOOOOOOOOoOOOO+OOOOOOOoooooo++++++OOOOOOOOO++++++",
"      ...OOOOOoOOOOOOOOOooOOOOOOOOoooooooooOOOOOOOOOOOOO++++++++",
"     ...OOOOOOooOOOO.ooooooOOOOOOoooooooooooOOOOOOOOOOO+++OOO+++",
"     ..OOOOOOO.oOOOO.ooooooo.oOOo.ooooOOoooooOOOOOOOO++++OOOOO++",
"     ..OOOOOOO.oOOOO..ooooo..oooo.ooOOOOOOoooo.OOOOOOO...OOOOOOO",
"     ..OOOOOOO..OOO....ooo..ooooo..oOOOO.OOOOO..OOOOOOOO..OOOOOO",
"      ..OOOOOO..........oo..ooooo...OOOO..OOOOO..OOOOOOO....OOOO",
"      ...OOOO.......  .....oooooo....OO...OOOOO...OOOOOO.....OOO",
"       ........          ..oooooo..........OOOO....OOOO......OOO",
"        ......            ..oooo... ..... ..OO... ........ ...OO",
"                          .........       ......   ......   ...O",
"                           .......         ....               .."
};
