/* XPM */
static char *s64an3N5zwSNznW_png[] = {
/* columns rows colors chars-per-pixel */
"64 64 6 1 ",
"  c 0xFFFFF",
". c #161C2E",
"X c #679175",
"o c #79A863",
"O c #9BB94E",
"+ c #BFBA5B",
/* pixels */
"oOOOOO++++++++++oooooooooooooooooooooooooooooooooooooooooooooooo",
"OOOOOOO++++++OoooOOOoooooooooooooooooooooXXXXoooooooooooooooooOO",
"OOO+++++++++OOOOOOOOOOOOooooooooooooooooXXXXXXOOOOOOOOXXXXoooOOO",
"O+++++++++++OOOOOOOoooooooooooooooooXXXoXXXXXXXXXXXOOXXXXXXXoOOO",
"+++++++++++OOOOOOOOOOooooooooooooooXXXXXXXXXXXXXXXXXXX+++XXXXOOO",
"+OOOOO+++++OOOOOOOOOOOOoooooooooooXXXXX++++XXXX++++XX+++++XXXX++",
"OOOOOOO+++++O++OOOOOOOOOOOOoooooooXXX+++++++XX+++++++++++++++++O",
"OOOOOOOOO+++++++OOOOOOOOOOOoooooXXXX++++++++X++++++++++++++++++O",
"+++OOOOOOO+++OOO+OOOOOOOOOOO++++++X++++++++++++++++++++++++++++O",
"++++OOOOOOOOOOOOOOOOOOOOOOO++OO+++++++++++++++++++++++++++++++++",
"++++OOO++OOOOOOOOOOOOOOOOOO+OOOO++++++++OOO+++++OO++++OO++++++++",
"++++OO+++++OOOOOOOOOOOOOOOOOOOOOOOOO+++OOOOO++OOOOOO+OOOO+++++++",
"++++++++++++++++++++OOOOOOOOOOOOOOOOO++OOOOO+OOOOOOOOOOOO+++++++",
"O+++++++++OOOOOOOOOOOOOOOOOOOOOOOOOOOOOOOOOO+OOOOOOOOOOOO+++++OO",
"OOOOOOOOOOOOOooooooOOOOOOOOOOOOOOOOOOOOOOOOOOOOOOOOOOOOOOOOOOOOO",
"OOOOOOOOOOOoooooooooOooooOOOOOO+++OOOOOOOOOOOOOOOOOOOOOOOOOOOOOO",
"OOOOOOOOOoooooooooooooooooOOO++++++OOOOOOOOOOoooOOOOOOOOOOOOOOOO",
"OOOOOOOOoooooooooooooooooo+++++++++++++oooOOoooooOOOOOOOOOOOOOOO",
"OOOOOOooooooOOOOOoooooooooooo+++++++++oooooooOOoooOOOOOOoooOOOOO",
"oOOOoooooooOOOOOOOoooOOOooooooo+++oooooOOoooOOOOoooOOOOoooooOOOo",
"ooOOOOOOOOOOOOOOOOooOOOOOOOOOOOOOOOOOOOOOOOOOOOOOOOOOOoooooooooo",
"oooooOOOOOOOOOOOOOOOOOOOOOOOOOOOOOOOOOOooOOOOOooooOOOOoooooooooo",
"oOOOOOOOOOOOOOOOOOOOOOOOXXXXXXOOOXXXOoooooOooooooooOOooooOOOoooo",
"OOOOOOOOOXXXXXOOXXXOOO++++XXXXXOXXXXXoooooooooooooooooooOOOOOOOO",
"OOOOOOOOXXXXXXXXXXXXO+++++++XXXXXX++XXooooooooooooooooooOOOOOOOO",
"OOOOOOXXX++++XXX++XX+++++++++XXXX++++XX++oooOOooOOOooooOOOOOOOOO",
"OOOXXXX+++++++++++++++++++++++XX++++++++++ooOOOOOOOOooooooooooOO",
"o+XX++++++++++++++++++++ooo++++X++OO++++++++OOOOOOOOoooooooooooo",
"+++++++++++ooo+++++++++ooooo+++++OOOO+++++++++OOOOOOooooo+++++++",
"+OOOOOO++ooooooo++oooooooooooooOOOOOOOOOOO+++OOOOOOoo+++++++++++",
"OOOOOOOOOOOOOoooooooooooooooooooooOOOOOOOOOOOOOOOOOOOOOOOOOOOOOO",
"OOOOOOOOOOOOOOOOOooooooooooooooooooooOOOooooooOOOOOOOOOOOOOOOOOO",
"++++OOOOOOOOOOOOOOOOOoooooooooooooooooooooooooOOOOOOOOOOOOOOOOOO",
"+++++OOOOOOOOOOOOoooooooOOOooooooooooooooo+++oOOOOOOOOOOOOOOOOO+",
"++++++++OOOOoooooooooooOOOOOoooooooOOOOOO+++++OOOOOOOOOOOOO+++++",
"+OOO+++++OOOOOOOOOOOOOOOOOOOooooOOOOO++OO++++++OOOOOOOOOOOOOO+++",
"OOOOO+++++OOOOOOOOOOOOOOOOOOOOOOOOO++++++++++++OOOOOOOOOOOOOOOO+",
"OOOOOOOOOOOOOOOOOOOOOOOOOOOOOOOOOO++++++++ooo++++++OOOOOOOOOOOOO",
"OOOOOOOOOOOOOOOOOOOOOOOOOOOOOOOOOooooooooooooo++++++++++oooOOOOO",
"OOOOOOOOOOOOOOOOOOOOOOOOOOOOOOOOoooooOOooooooooooooooooooooooooo",
"oooooooooOOOOOOOOOOOOOOOOOOOOooooooOOOOOoooooooooooooooooooooooo",
"oooooOOOOOOOOOOOOOOOOOOOOOOOOOOOOOOOOOOOOOOooooooooooooooooooooo",
"OOOOOOOOOOOOOOOOOOOOOOOOOOOOOOOOOOOOOOOOOOOOoooOOOOooooooooooooO",
"OOOOOOOOOOOOOOOOOOOXXXXXOOOOXXXXXOOOOOO+++OOooOOOOOOoOOOooOOOOOO",
"OOOOOOOOOOOOOOOOOXXXXXXXXOOXXXXXXXOOOO+++++OooOOOOOOOOOOOOOOOOOO",
"+OOOOOOOOOOOOOOOXXX+++XXXXXXX++++XXOO++++++++ooOOOOOOOOOOOOO++++",
"+OOOOOXXXXXOOXXXXX++++++XXXX+++++++XO+++++++++OOOOOOOOO+++++++++",
"OOOOOXXXXXXXXXXXXX++++++++X+++++++++++++++++++OOOOOO++++++++++++",
"OXXOXXX++XXXXX++XXX+++++++++++++++++++++++++++++OOOO++++++++++OO",
"XXXXXX++++XXX+++++X+++++++++++++++++++++++++++++OOOOOOOOOOOOOOOO",
"XX++XX+++++++++++++++++++++++++OOOO+++++oo+++++++++OOOOOOOOOOOOO",
"X+++++++++++++++++++++oooo++++OOOOOO+++oooo+++++++++OOOOOOOO++XX",
"++++++OOO+++++OOOO+++ooooooOO+OOOOOOOoooooo++++++OOOOOOOOO++++++",
"+++++OOOOO+++OOOoooooooooooOOOOOOOoooooooooOOOOOOOOOOO++++++++++",
"+++OOOOOOO+++OOoooooooooooOOOOOOOoooooooooooOOOOOOOO++++++OOO+++",
"+OOOOOOOOOOO..Oooooooooooooo.oOOooooo.OOoooooOOOOOOOOO+++.OOOO++",
"OOOOOOOOOOO..ooooooooooooooo..oooooo..OOOOoooooOOOOOOO++..OOOOOO",
"OOOOO.OOOO...oOOOOOOooooooooo...ooo...OOOOOOOOOOO.OOO+++.OOOOOOO",
"OOOOO.OOOO..OOOOOOOooooOOOoooo.......OOOOO..OOOOO.+++++..OOOOOOO",
"OOOOO.OOOO..OOOOO..oooo.OOOOoo.......OOOOO...OOO...+++...OOOOO.O",
"OOOO...OO...OOOOO..oooo.OOOOO...   ...OOO.. .............OOOO..O",
"OOO..........OOO....oo...OOO....    .......  .... ........OO...O",
"OO..   ........................      .....         .... ........",
"...       .......  ... .......                           ..... ."
};
