/* XPM */
static char *bf7f2e9f9ee840ee95a05417c15cd69aEmkGLetrEgBGcuFh[] = {
/* columns rows colors chars-per-pixel */
"64 64 6 1 ",
"  c 0xFFFFF",
". c #161C2E",
"X c #679175",
"o c #79A863",
"O c #9BB94E",
"+ c #BFBA5B",
/* pixels */
"...               ....         .......                          ",
".....   ......   ......       .........           ....          ",
"OOO... ........ ...oo.. ..... ...XXXX..         ........        ",
"OOOO......++++....oooo..........XXXXXX..       ....+++...       ",
"OOOO.....++++++...ooooo...oo....XXXXXX.......  ...+++++...      ",
"OOOOO....+++++++..ooOOo..oooo...XXXXX......... ..+++++++..      ",
"OOOOOO+..++++++++..oOOOO.ooooo..XX+++..+++++.....+++++++..      ",
"OOOOOOOO...++OOO+O.OOOOOOOOoooo.X+++..+++++++..+++++++++..      ",
"++OOOOOOO+++OOOOOOOOOOOOOOO++++.++++.++++++++..+++++++++..      ",
"+++OOOOOOOOOOOOOOOOOOOOOOO++OO+++++++++++++++..+++++++.....     ",
"+++OOO++OOOOOOOOOOOOOOOOOO+OOOO++++++++OOO+...+OO+++........    ",
"+++OO+++++OOOOOOOOOOOOOOOOOOOOOOOOO+++OOOO....OOOOO+..OOOO...   ",
"+++++++++++++++++++OOOOOOOOOOOOOOOOO++OOOO.+OOOOOOOOOOOOOOO..   ",
"+++++++++OOOOOOOOOOOOOOOOOOOOOOOOOOOOOOOOOO+OOOOOOOOOOOOOOO..   ",
"OOOOOOOOOOOOooooooOOOOOOOOOOOOOOOOOOOOOOOOOOOOOOOOOOOOOOOOO..   ",
"OOOOOOOOOOoooooooooOooooOOOOOO+++OOOOOOOOOOOOOOOOOOO..OOOO...   ",
"OOOOOOOOoooooooooooooooooOOO++++++OOOOOOOOOOoooOOOOOOO......    ",
"OOOOOOOoooooooooooooooooo+++++++++++++oooOOoooooOOOOOOO.....    ",
"OOOOOooooooOOOOOoooooooooooo+++++++++oooooooOOoooOOOOOOo..      ",
"OOOoooooooOOOOOOOoooOOOooooooo+++oooooOOoooOOOOoooOOOOoo..      ",
"oOOOOOOOOOOOOOOOOooOOOOOOOOOOOOOOOOOOOOOOOOOOOOOOOOOOoo....     ",
"ooooOOOOOOOOOOOOOOOOOOOOOOOOOOOOOOOOOOooOOOOOooooOOOOooo...     ",
"OOOOOOOOOOOOOOOOOOOOOOOXXXXXXOOOXXXOoooooOooooooooOOooooo..     ",
"OOOOOOOOXXXXXOOXXXOOO++++XXXXXOXXXXXooooooooooooooooooooo...    ",
"OOOOOOOXXXXXXXXXXXXO+++++++XXXXXX++XXooooooooooooooooooo......  ",
"OOOOOXXX++++XXX++XX+++++++++XXXX++++XX++oooOOooOOOoooooooooo... ",
"OOXXXX+++++++++++++++++++++++XX++++++++++ooOOOOOOOOoooooooooo.. ",
"+XX++++++++++++++++++++ooo++++X++OO++++++++OOOOOOOOoooOOOoooo.. ",
"++++++++++ooo+++++++++ooooo+++++OOOO+++++++++OOOOOOooOOOOOooo.. ",
"OOOOOO++ooooooo++oooooooooooooOOOOOOOOOOO+++OOOOOOooOOOOOOoo... ",
"OOOOOOOOOOOOoooooooooooooooooooooOOOOOOOOOOOOOOOOOOOOOOO......  ",
"OOOOOOOOOOOOOOOOooooooooooooooooooooOOOooooooOOOOOOOOOOOOO..... ",
"+++OOOOOOOOOOOOOOOOOoooooooooooooooooooooooooOOOOOOOOOOOOOOOO...",
"++++OOOOOOOOOOOOoooooooOOOooooooooooooooo+++oOOOOOOOOOOOOOOOOO..",
"+++++++OOOOoooooooooooOOOOOoooooooOOOOOO+++++OOOOOOOOOOOOOOOOO..",
"OOO+++++OOOOOOOOOOOOOOOOOOOooooOOOOO++OO++++++OOOOOOOOOOOOOOO...",
"OOOO+++++OOOOOOOOOOOOOOOOOOOOOOOOO++++++++++++OOOOOOOOOOOOOOO.. ",
"OOOOOOOOOOOOOOOOOOOOOOOOOOOOOOOOO++++++++ooo++++++OOOOOOOOOO..  ",
"OOOOOOOOOOOOOOOOOOOOOOOOOOOOOOOOooooooooooooo++++++++++o.....   ",
"OOOOOOOOOOOOOOOOOOOOOOOOOOOOOOOoooooOOooooooooooooooooooo...    ",
"ooooooooOOOOOOOOOOOOOOOOOOOOooooooOOOOOoooooooooooooooooo....   ",
"ooooOOOOOOOOOOOOOOOOOOOOOOOOOOOOOOOOOOOOOOooooooooooooooooo..   ",
"OOOOOOOOOOOOOOOOOOOOOOOOOOOOOOOOOOOOOOOOOOOoooOOOOoooooooooo..  ",
"OOOOOOOOOOOOOOOOOOXXXXXOOOOXXXXXOOOOOO+++OOooOOOOOOoOOOooooo..  ",
"OOOOOOOOOOOOOOOOXXXXXXXXOOXXXXXXXOOOO+++++O....OOOOO...Ooooo..  ",
"OOOOOOOOOOOOOOOXXX+++XXXXXXX++++XXOO++++++.......OO......oo...  ",
"OOOOOXXXXXOOXXXXX++++++XXXX+++++++XO+++++++++OO.....+++......   ",
"OOOOXXXXXXXXXXXXX++++++++X+++++++++++++++++++OOOO..++++++...    ",
"XXOXXX++XXXXX++XXX+++++++++++++++++++++++++++++OOOO+++++++...   ",
"XXXXX++++XXX+++++X+++++++++++++++++++++++++++++OOOOOOOO++++..   ",
"X++XX+++++++++++++++++++++++++OOOO+++++oo+++++++++OOOOO++++..   ",
"+++++++++++++++++++++oooo++++OOOOOO+++oooo+++++++++OOOOOO++..   ",
"+++++OOO+++++OOOO+++ooooooOO+OOOOOOOoooooo++++++OOOOOOOOO+...   ",
"++++OOOOO+++OOOoooooooooooOOOOOOOoooooooooOOOOOOOOOOOOO.....    ",
"++OOOOOO...+OOoooooooooooOOOOOOOoooooooo..oOOOOOOOOOOO+....     ",
"OOOOOOOOO...OO..oooooo..oooooOOooooooOOoo..OOOOOO.OO++++..      ",
"OOOO.OOOOO.....oooooo..ooooooo.oooooOOOOO..OOOOOO.OOOOOOO..     ",
"OOOO.OOOOOO...ooOOOoo..oooooo..oooo.OOOOO...OOOO..OOOOOoo..     ",
"OOOO.OOOOOO...oOOOOO...ooooo..ooOOo...OO..........oOOOooo..     ",
"OOOO..OOOO....oOOOO.....ooo...oOOOOo..............oooooo...     ",
"OOOO...........OOO... .........OOOOO......     ....oooo...      ",
"OOO........ ........    ... ....OOO...           ........       ",
"OO...        ......          .........             .....        ",
"....                          .......                           "
};
