/* XPM */
static char *_b49342036fb4605bab180e3e33f2c68[] = {
/* columns rows colors chars-per-pixel */
"64 64 6 1 ",
"  c None",
". c #161C2E",
"X c #679175",
"o c #79A863",
"O c #9BB94E",
"+ c #BFBA5B",
/* pixels */
" ..OOOOOO+++++++oooooooooooooooooooooooooooooooooooooooooooooooo",
" .....OOO++++OoooOOOoooooooooooooooooooooXXXXoooooooooooooooooOO",
"  ......++++OOOOOOOOOOOOooooooooooooooooXXXXXXOOOOOOOOXXXXoooOOO",
"    ...+++++OOOOOOOoooooooooooooooooXXXoXXXXXXXXXXXOOXXXXXXXoOOO",
"   ..++++++OOOOOOOOOOooooooooooooooXXXXXXXXXXXXXXXXXXX+++XXXXOOO",
"  ..+++++++OOOOOOOOOOOOoooooooooooXXXXX++++XXXX++++XX+++++XXXX++",
" ...++++++++O++OOOOOOOOOOOOoooooooXXX+++++++XX+++++++++++++++++O",
" ...++++++++++++OOOOOOOOOOOoooooXXXX++++++++X++++++++++++++++++O",
" ...+++++O+++OOO+OOOOOOOOOOO++++++X++++++++++++++++++++++++++++O",
" ....++++OOOOOOOOOOOOOOOOOO++OO+++++++++++++++++++++++++++++++++",
"  .......OOOOOOOOOOOOOOOOOO+OOOO++++++++OOO+++++OO++++OO++++++++",
"  ........OOOOOOOOOOOOOOOOOOOOOOOOOO+++OOOOO++OOOOOO+OOOO+++++++",
" ...OOOO...+++++++++OOOOOOOOOOOOOOOOO++OOOOO+OOOOOOOOOOOO+++++++",
" ..OOOOOO+OOOOOOOOOOOOOOOOOOOOOOOOOOOOOOOOOO+OOOOOOOOOOOO+++++OO",
" ..OOOOOOOOOOooooooOOOOOOOOOOOOOOOOOOOOOOOOOOOOOOOOOOOOOOOOOOOOO",
" ..OOOOOOOOoooooooooOooooOOOOOO+++OOOOOOOOOOOOOOOOOOOOOOOOOOOOOO",
" ...OO...oooooooooooooooooOOO++++++OOOOOOOOOOoooOOOOOOOOOOOOOOOO",
" .......OOOOoooooooooooooo+++++++++++++oooOOoooooOOOOOOOOOOOOOOO",
"  .....OOOOOOOOOOoooooooooooo+++++++++oooooooOOoooOOOOOOoooOOOOO",
"   ....OOOOOOOOOOOoooOOOooooooo+++oooooOOoooOOOOoooOOOOoooooOOOo",
"   ....OOOOOOOOOOOooOOOOOOOOOOOOOOOOOOOOOOOOOOOOOOOOOOoooooooooo",
"  ...o..OOOXXXOOOOOOOOOOOOOOOOOOOOOOOOOooOOOOOooooOOOOoooooooooo",
" ...ooX..OXXXOOOOOOOOOOOXXXXXXOOOXXXOoooooOooooooooOOooooOOOoooo",
" ..oooXXXXXXOOOOXXXOOO++++XXXXXOXXXXXoooooooooooooooooooOOOOOOOO",
" ..ooooXXXXXXOOXXXXXO+++++++XXXXXX++XXooooooooooooooooooOOOOOOOO",
" ..ooooooX.XXXXX++XX+++++++++XXXX++++XX++oooOOooOOOooooOOOOOOOOO",
" ...ooooo..+++++++++++++++++++XX++++++++++ooOOOOOOOOooooooooooOO",
"  ........++++++++++++++ooo++++X++OO++++++++OOOOOOOOoooooooooooo",
"   .......+ooo+++++++++ooooo+++++OOOO+++++++++OOOOOOooooo+++++++",
"  ...OO+..oooooo++oooooooooooooOOOOOOOOOOO+++OOOOOOoo+++++++++++",
"  ..OOOOO.OOOoooooooooooooooooooooOOOOOOOOOOOOOOOOOOOOOOOOOOOOOO",
"  ..OOOOOOOOOOOOOooooooooooooooooooooOOOooooooOOOOOOOOOOOOOOOOOO",
"  ..OOOOOOOOOOOOOOOOOoooooooooooooooooooooooooOOOOOOOOOOOOOOOOOO",
"  ..OOOOOOOOOOOOooooooooOOOooooooooooooooo+++oOOOOOOOOOOOOOOOOO+",
"   ..OOOOOOOOOOOOOoooooOOOOOoooooooOOOOOO+++++OOOOOOOOOOOOO+++++",
"  .....OOOOOOOOOOOOOOOOOOOOOooooOOOOO++OO++++++OOOOOOOOOOOOOO+++",
" ...OOOOOOOOOOOOOOOOOOOOOOOOOOOOOOO++++++++++++OOOOOOOOOOOOOOOO+",
" ..OOOOOOOOOOOOOOOOOOOOOOOOOOOOOOO++++++++ooo++++++OOOOOOOOOOOOO",
" ..OOOOOOOOOOOOOOOOOOOOOOOOOOOOOOooooooooooooo++++++++++oooOOOOO",
" ...OOOOOOooooooOOOoooOOOOOOOOOOoooooOOooooooooooooooooooooooooo",
"  ...OO..ooooooooooooOOOOOOOOooooooOOOOOoooooooooooooooooooooooo",
"   .....ooOOOOoooOOOOOOOOOOOOOOOOOOOOOOOOOOooooooooooooooooooooo",
"   ....OOOOOOOOOOOOOOOOOOOOOOOOOOOOOOOOOOOOOoooOOOOooooooooooooO",
"   ...OOOOOOOOOOOOOXXXXXOOOOXXXXXOOOOOO+++OOooOOOOOOoOOOooOOOOOO",
"   ...OOOOOOOOOOOXXXXXXXXOOXXXXXXXOOOO+++++OooOOOOOOOOOOOOOOOOOO",
"    ...OOOOOOOOOXXX+++XXXXXXX++++XXOO++++++++ooOOOOOOOOOOOOO++++",
"    ......OOO.....++++++XXXX+++++++XO+++++++++OOOOOOOOO+++++++++",
"  .................+++++++X+++++++++++++++++++OOOOOO++++++++++++",
" ....++++.....++++++++++++++++++++++++++++++++++OOOO++++++++++OO",
" ...++++++...+++++++++++++++++++++++++++++++++++OOOOOOOOOOOOOOOO",
" ..++++++++++++++++++++++++++++OOOO+++++oo+++++++++OOOOOOOOOOOOO",
" ..+++++++++++++++++++oooo++++OOOOOO+++oooo+++++++++OOOOOOOO++XX",
" ..+++OOO+++++OOOO+++ooooooOO+OOOOOOOoooooo++++++OOOOOOOOO++++++",
" ..++OOOOO+++OOOoooooooooooOOOOOOOoooooooooOOOOOOOOOOOOO++++++++",
" ...OOOOOO+++OOoooooooooooOOOOOOOoooooooooooOOOOOOOOOOO+++OOO+++",
"  ....OOOOOO+OOoooooooooooooooOOooooooOOoooooOOOOOOOO++++OOOOO++",
"   ....OOOOOOooooooooooooooooooooooooOOOOOoooooOOOOOOOOOOOOOOOOO",
"  ...OOooooooooooOOOoooooooooooooooooOOOOOOOOOOOOOOOOOOOOOOOOOOO",
"  ..OOOOOOooooooOOOOOooOOOoooooooOOooOOOOOOOOOOOOOOOOOOoooOOOOOO",
" ..+OOOOOOOOOoooOOOOOoOOOOOOooooOOOOooOOOOOOOOOOOOOOOOoooooOOOOO",
" .OOOOOOOOOOOOOOOOOOOOOOOOOOOOOOOOOOOOOOOOOOOOOoooOOOooooooOOOOO",
" .OOOOOOOOOO++++++OOOOOOOOOOOOOOOOOOOOOOOOOOOOoooooooooooooOOOOO",
" .OOOOOOOOO+++++++++OOOOOOOOooooOOOOOOOOOOOOOoooooooooooooooooOO",
" .OOOOOOOOO++++++ooooOOoooooooooooOOooooOOOOoooooooooooooooooooo"
};
