/* XPM */
static char *_23cf6030c3e4e7584a510daf5f37549[] = {
/* columns rows colors chars-per-pixel */
"64 64 6 1 ",
"  c None",
". c #161C2E",
"X c #679175",
"o c #79A863",
"O c #9BB94E",
"+ c #BFBA5B",
/* pixels */
"oOOOOO++++++++++oooooooooooooooooooooooooooooooooooooooooooOOOOO",
"OOOOOOO++++++OoooOOOoooooooooooooooooooooXXXXoooooooooooooOOOOOO",
"OOO+++++++++OOOOOOOOOOOOooooooooooooooooXXXXXXOOOOOOOOooooOOOOOO",
"O+++++++++++OOOOOOOoooooooooooooooooXXXoXXXXXXXXXXOOO.....oOOOO.",
"+++++++++++OOOOOOOOOOooooooooooooooXXXXXXXXXXXXXXX.........OOOO.",
"+OOOOO+++++OOOOOOOOOOOOoooooooooooXXXXX++++XXXX++++..+++....OO..",
"OOOOOOO+++++O++OOOOOOOOOOOOoooooooXXX+++++++XX+++++++++++.......",
"OOOOOOOOO+++++++OOOOOOOOOOOoooooXXXX++++++++X+++++++++++++..... ",
"+++OOOOOOO+++OOO+OOOOOOOOOOO++++++X+++++++++++++++++++++++......",
"++++OOOOOOOOOOOOOOOOOOOOOOO++OO++++++++++++++++++++++++++...++..",
"++++OOO++OOOOOOOOOOOOOOOOOO+OOOO++++++++OOO+++++OO++++OO..+++++.",
"++++OO+++++OOOOOOOOOOOOOOOOOOOOOOOOO+++OOOOO++OOOOOO+OOOO++++++.",
"++++++++++++++++++++OOOOOOOOOOOOOOOOO++OOOOO+OOOOOOOOOOOOOO++++.",
"O+++++++++OOOOOOOOOOOOOOOOOOOOOOOOOOOOOOOOOO+OOOOOOOOOOOOOOO+++.",
"OOOOOOOOOOOOOooooooOOOOOOOOOOOOOOOOOOOOOOOOOOOOOOOOOOOOOOOOO++..",
"OOOOOOOOOOOoooooooooOooooOOOOOO+++OOOOOOOOOOOOOOOOOOOOOOOOOO+...",
"OOOOOOOOOoooooooooooooooooOOO++++++OOOOOOOOOOoooOOOOOOOO........",
"OOOOOOOOoooooooooooooooooo+++++++++++++oooOOoooooOOOOOOOOO....  ",
"OOOOOOooooooOOOOOoooooooooooo+++++++++oooooooOOoooOOOOOOooo...  ",
"oOOOoooooooOOOOOOOoooOOOooooooo+++oooooOOoooOOOOoooooOOooooo... ",
"ooOOOOOOOOOOOOOOOOooOOOOOOOOOOOOOOOOOOOOOOOOOOOOOOOooOoooooo... ",
"oooooOOOOOOOOOOOOOOOOOOOOOOOOOOOOOOOOOOooOOOOOooooOOOOooooo.... ",
"oOOOOOOOOOOOOOOOOOOOOOOOXXXXXXOOOXXXOoooooOooooooooOOooooo..... ",
"OOOOOOOOOXXXXXOOXXXOOO++++XXXXXOXXXXXoooooooooooooooooooO..OO...",
"OOOOOOOOXXXXXXXXXXXXO+++++++XXXXXX++XXooooooooooooooooooOOOOOO..",
"OOOOOOXXX++++XXX++XX+++++++++XXXX++++XX++oooOOooOOOooooOOOOOOOO.",
"OOOXXXX+++++++++++++++++++++++XX++++++++++ooOOOOOOOOooooooOOOOO.",
"o+XX++++++++++++++++++++ooo++++X++OO++++++++OOOOOOOOoooooooOOO..",
"+++++++++++ooo+++++++++ooooo+++++OOOO+++++++++OOOOOOooooo++.....",
"+OOOOOO++ooooooo++oooooooooooooOOOOOOOOOOO+++OOOOOOoo++++++++.. ",
"OOOOOOOOOOOOOoooooooooooooooooooooOOOOOOOOOOOOOOOOOOOOOOOOO+++..",
"OOOOOOOOOOOOOOOOOooooooooooooooooooooOOOooooooOOOOOOOOOOOOOOOO..",
"++++OOOOOOOOOOOOOOOOOoooooooooooooooooooooooooOOOOOOOOOOOOOOOO..",
"+++++OOOOOOOOOOOOoooooooOOOooooooooooooooo+++oOOOOOOOOOO.OOOOO..",
"++++++++OOOOoooooooooooOOOOOoooooooOOOOOO+++++OOOOOOOOOO..OOO...",
"+OOO+++++OOOOOOOOOOOOOOOOOOOooooOOOOO++OO++++++OOOOOOOOO....... ",
"OOOOO+++++OOOOOOOOOOOOOOOOOOOOOOOOO++++++++++++OOOOOOOOO........",
"OOOOOOOOOOOOOOOOOOOOOOOOOOOOOOOOOO++++++++ooo++++++OOOO..ooooo..",
"OOOOOOOOOOOOOOOOOOOOOOOOOOOOOOOOOooooooooooooo+++++++++.ooooOOO.",
"OOOOOOOOOOOOOOOOOOOOOOOOOOOOOOOOoooooOOooooooooooooooooooooOOOO.",
"oooooooooOOOOOOOOOOOOOOOOOOOOooooooOOOOOoooooooooooooooooooOOOO.",
"oooooOOOOOOOOOOOOOOOOOOOOOOOOOOOOOOOOOOOOOOoooooooooooooo..OOO..",
"OOOOOOOOOOOOOOOOOOOOOOOOOOOOOOOOOOOOOOOOOOOOoooOOOOooooooo......",
"OOOOOOOOOOOOOOOOOOOXXXXXOOOOXXXXXOOOOOO+++OOooOOOOOOoOOOooO.... ",
"OOOOOOOOOOOOOOOOOXXXXXXXXOOXXXXXXXOOOO+++++OooOOOOOOOOOOOOO.... ",
"+OOOOOOOOOOOOOOOXXX+++XXXXXXX++++XXOO++++++++ooOOOOOOOOOOOO.....",
"+OOOOOXXXXXOOXXXXX++++++XXXX+++++++XO+++++++++OOOOOOOOOO++......",
"OOOOOXXXXXXXXXXXXX++++++++X+++++++++++++++++++OOOOOOOOO++...++..",
"OXXOXXX++XXXXX++XXX+++++++++++++++++++++++++++++OOOO+++++++++++.",
"XXXXXX++++XXX+++++X+++++++++++++++++++++++++++++OOOOOOOOOO+++++.",
"XX++XX+++++++++++++++++++++++++OOOO+++++oo+++++++++OOOOOOOOOO++.",
"X+++++++++++++++++++++oooo++++OOOOOO+++oooo+++++++++OOOOOOOOO+..",
"++++++OOO+++++OOOO+++ooooooOO+OOOOOOOoooooo++++++OOOOOOOOOOO....",
"+++++OOOOO+++OOOoooooooooooOOOOOOOoooooooooOOOOOOOOOOOOO++......",
"+++OOOOOOO+++OOoooooooooooOOOOOOOoooooooooooOOOOOOOOOOO++..OO...",
"+OOOOOOOOOOO+OOoooooooooooooooOOooooooOOoooooOOOOOOOO++++OOOOO..",
"OOOOOOOOOOOOOooooooooooooooooooooooooOOOOOoooooOOOOOOOOOOOOOOO..",
"OOOOOOOooooooooooOOOoooooooooooooooooOOOOOOOOOOOOOOOOOOOOOOOOO..",
"OOOOOOOOOOooooooOOOOOooOOOoooooooOOooOOOOOOOOOOOOOOOOOOoooOOOO..",
"OOOOOOOOOOOOOoooOOOOOoOOOOOOooooOOOOooOOOOOOOOOOOOOOOOoooooOO.. ",
"OOOOOOO++OOOOOOOOOOOOOOOOOOOOOOOOOOOOOOOOOOOOOOoooOOOoooooo...  ",
"OOOOOO++++OOOO++++OOOOOOOOOOOOOOOOOOOOOOOOOOOOoooooooooooo......",
"OOOO++++++++++++++++OOOOOOOOooooOOOOOOOOOOOOOoooooooooooooooooo.",
"ooo++++++++++++++ooooOOoooooooooooOOooooOOOOooooooooooOOOOOOoooo"
};
