/* XPM */
static char *_419f9fc576d4d68acc158011a234e13eDiuLKjoAtAO3h58[] = {
/* columns rows colors chars-per-pixel */
"64 64 6 1 ",
"  c None",
". c #161C2E",
"X c #679175",
"o c #79A863",
"O c #9BB94E",
"+ c #BFBA5B",
/* pixels */
"                           .......                              ",
"       ......             .........               ....          ",
"      ........ ....       ...ooo.... ....       ........        ",
"     ...++++.........  .....ooooo..........    ....+++...       ",
"     ..++++++...............oooooo...+++.....  ...+++++...      ",
"     ..++++++...OOO.....OO...ooooo..+++++++... ..+++++++..      ",
"     ..+++++++.OOOOOO..OOOOo.oooo..+++++++++.....+++++++..      ",
"     ...++++++.OOOOOO..OOOOooooo+.+++++++++++..+++++++++..      ",
"   ......++OOOOOOOOOO..OOOO++++++++++++++++++..+++++++++..      ",
"  ........OOOOOOOOOOOO..OO++OO++++++++++++++...+++++++.....     ",
" ...+++...OOOOOOOOOOOOOOOO+OOOO++++++++OOO+...+OO+++........    ",
" ..++++++.OOOOOOOOOOOOOOOOOOOOOOOOO+++OOOOO.+OOOOOO+..OO++...   ",
" ..++++++++OOOOOOOOOOOOOOOOOOOOOOOOO++OOOOO+OOOOOOOOOOOO+++..   ",
" ..++++++OOOOOOOOOOOOOOOOOOOOOOOOOOOOOOOOOO+OOOOOOOOOOOO+++..   ",
" ..++OOOOOOOooooooOOOOOOOOOOOOOOOOOOOOOOOOOOOOOOOOOOOOOOOOO..   ",
" ...OOOO..oooooooooOooooOOOOOO+++OOOOOOOOOOOOOOOOOOO..OOOO...   ",
"  .......ooooooooooooooooOOO++++++OOOOOOOOOOoooOOOOOOO......    ",
"   .....ooooooooooooooooo+++++++++++++oooOOoooooOOOOOOO.....    ",
"  ...OOOOooOOOOOoooooooooooo+++++++++oooooooOOoooOOOOOOo..      ",
"  ..OOOOOOOOOOOOOoooOOOooooooo+++oooooOOoooOOOOoooOOOOoo..      ",
"  ..OOOOOOOOOOOOOooOOOOOOOOOOOOOOOOOOOOOOOOOOOOOOOOOOoooo.....  ",
"  ..OOOOOOOOOOOOOOOOOOOOOOOOOOOOOOOOOOooOOOOOooooOOOOoooo...... ",
"   ..OOOOOOOOOOOOOOOOOOXXXXXXOOOXXXOoooooOooooooooOOooooo..OO...",
"  .....OXXXXXOOXXXOOO++++XXXXXOXXXXXooooooooooooooooooo...OOOO..",
" .......XXXXXXXXXXXO+++++++XXXXXX++XXooooooooooooooooo...OOOOO..",
" ...+++...++XXX++XX+++++++++XXXX++++XX++oooOOooOOOooooOOOOOOOO..",
" ..++++++++++++++++++++++++++XX++++++++++ooOOOOOOOOoooooooOOOO..",
" ..++++++++++++++++++++ooo++++X++OO++++++++OOOOOOOOoooooooooo.. ",
" ..+++++++ooo+++++++++ooooo+++++OOOO+++++++++OOOOOOooooo+++...  ",
" ..++O++ooooooo++oooooooooooooOOOOOOOOOOO+++OOOOOOoo++++......  ",
"  ..OOOOOOOOoooooooooooooooooooooOOOOOOOOOOOOOOOOOOOOOOOO....   ",
"   ..OOOOOOOOOOOooooooooooooooooooooOOOooooooOOOOOOOOOOOOO..... ",
"   ....OOOOOOOOOOOOOoooooooooooooooooooooooooOOOOOOOOOOOOO......",
"  ......OOOOOOOOoooooooOOOooooooooooooooo+++oOOOOOOOOOOOO..OO...",
" ...+++OOOOoooooooooooOOOOOoooooooOOOOOO+++++OOOOOOOOOOO..OOOO..",
" ..+++++OOOOOOOOOOOOOOOOOOOooooOOOOO++OO++++++OOOOOOOOOOOOOOOO..",
" ..O+++++OOOOOOOOOOOOOOOOOOOOOOOOO++++++++++++OOOOOOOOOOOOOOO.. ",
" ..OOOOOOOOOOOOOOOOOOOOOOOOOOOOOO++++++++ooo++++++OOOOOOOOO...  ",
" ...OOOOOOOOOOOOOOOOOOOOOOOOOOOOooooooooooooo++++++++++o.....   ",
"  ......OOOOOOOOOOOOOOOOOOOOOOOoooooOOooooooooooooooooooo...    ",
"    ...OOOOOOOOOOOOOOOOOOOOOooooooOOOOOoooooooooooooooooo....   ",
"     ..OOOOOOOOOOOOOOOOOOOOOOOOOOOOOOOOOOOoooooooooooooooOO..   ",
"    ...OOOOOOOOOOOOOOOOOOOOOOOOOOOOOOOOOOOOoooOOOOooooooOOOO..  ",
"   ...OOOOOOOOOOOOXXXXXOOOOXXXXXOOOOOO+++OOooOOOOOOoOOOOOOOO..  ",
"  ...OOOOOOOOOOOXXXXXXXXOOXXXXXXXOOOO+++++OooOOOOOOOOOOOOOOO..  ",
" ...OOOOOOOOOOOXXX+++XXXXXXX++++XXOO++++++++ooOOOOOOOO..OOO...  ",
" ..OOOOOXXOOXXXXX++++++XXXX+++++++XO+++++++++OOOOOOOOO+......   ",
" ..OOOOOXXXXXXXXX++++++++X+++++++++++++++++++OOOOOO++++++...    ",
" ..OOOO.XXXXX++XXX+++++++++++++++++++++++++++++OOOO+++++++...   ",
" ..OOOO.+XXX+++++X+++++++++++++++++++++++++++++OOOOOOOOOOOO..   ",
" ...OO...+++++++++++++++++++++OOOO+++++oo+++++++++OOOOOOOOO..   ",
"  .........++++++++++oooo++++OOOOOO+++oooo+++++++++OOOOOOOO..   ",
"    .....++++OOOO+++ooooooOO+OOOOOOOoooooo++++++OOOOOOOOO+...   ",
"     ...O+++OOOoooooooooooOOOOOOOoooooooooOOOOOOOOOOOOO.....    ",
"    ...OO+++OOooooo.oooooOOOOOOOoooooooo..OOOOOOOOOOOO+....     ",
"    ..oOOOO+O.ooooo.ooooooo.oOOo.ooooOOoo..OOOOOO.OO++++..      ",
"    ..ooOOOOo.ooooo..ooooo..oooo.oooOOOOO..OOOOOO.OOOOOOO..     ",
"    ..ooooooo..ooo....ooo..ooooo..ooOOOOO...OOOO..OOOOOOO..     ",
"     ..oooooo..........oo..OOOOo...oOOOOO.........OOOOOOO..     ",
"     ...oooo.......  .....OOOOOO....oOOO..........OOOOOO...     ",
"      ........          ..OOOOOO..........     ....OOOO...      ",
"       ......            ..OOOO... ......        ........       ",
"                         .........                 .....        ",
"                          .......                               "
};
