/* XPM */
static char *_afeb5af91b04dd4abaf0ef6f0e2e54aw57j2hqiYcTI50bo[] = {
/* columns rows colors chars-per-pixel */
"64 64 6 1 ",
"  c None",
". c #161C2E",
"X c #679175",
"o c #79A863",
"O c #9BB94E",
"+ c #BFBA5B",
/* pixels */
"..  .....                           ....... ...  ......        .",
".......... ....         .....      ........................   ..",
"+.....OO........ ....  .......    ....+++...oo....+++..........+",
"+O...OOOO............. ..ooo...   ...+++++.oooo..+++++...oo...++",
"++..OOOOO...+++...OOO...ooooo.......++++++.oooo..+++++..oooo.+++",
"++..OOOOO..+++++.OOOOO..ooooo.......+++++++oooo+++++++..oooo.+++",
"++.OOOOOO.++++++.OOOOOOOOOoo...+++...+++++++oo+++++++...o+++.+++",
"++OOOOOO..+OOOO+ooOOOOOOOOOo..++++++..++++++o++++++++..++++++++O",
"+++OOOOO.OOOOOOOooOOOOOOOOOO.++++++++.++++++++++++++..+++++++++O",
"++++OOOOOOOOOOOOOooOOOOOOOO++OO+++++++++++++++++++++++++++++++++",
"++++OOO++OOOOOOOOOOOOOOOOOO+OOOO++++++++OOO+++++OO++++OO++++++++",
"++++OO+++++OOOOOOOOOOOOOOOOOOOOOOOOO+++OOOOO++OOOOOO+OOOO+++++++",
"++++++++++++++++++++OOOOOOOOOOOOOOOOO++OOOOO+OOOOOOOOOOOO+++++++",
"O+++++++++OOOOOOOOOOOOOOOOOOOOOOOOOOOOOOOOOO+OOOOOOOOOOOO+++++OO",
"OOOOOOOOOOOOOooooooOOOOOOOOOOOOOOOOOOOOOOOOOOOOOOOOOOOOOOOOOOOOO",
"OOOOOOOOOOOoooooooooOooooOOOOOO+++OOOOOOOOOOOOOOOOOOOOOOOOOOOOOO",
"OOOOOOOOOoooooooooooooooooOOO++++++OOOOOOOOOOoooOOOOOOOOOOOOOOOO",
"OOOOOOOOoooooooooooooooooo+++++++++++++oooOOoooooOOOOOOOOOOOOOOO",
"OOOOOOooooooOOOOOoooooooooooo+++++++++oooooooOOoooOOOOOOoooOOOOO",
"oOOOoooooooOOOOOOOoooOOOooooooo+++oooooOOoooOOOOoooOOOOoooooOOOo",
"ooOOOOOOOOOOOOOOOOooOOOOOOOOOOOOOOOOOOOOOOOOOOOOOOOOOOoooooooooo",
"oooooOOOOOOOOOOOOOOOOOOOOOOOOOOOOOOOOOOooOOOOOooooOOOOoooooooooo",
"oOOOOOOOOOOOOOOOOOOOOOOOXXXXXXOOOXXXOoooooOooooooooOOooooOOOoooo",
"OOOOOOOOOXXXXXOOXXXOOO++++XXXXXOXXXXXoooooooooooooooooooOOOOOOOO",
"OOOOOOOOXXXXXXXXXXXXO+++++++XXXXXX++XXooooooooooooooooooOOOOOOOO",
"OOOOOOXXX++++XXX++XX+++++++++XXXX++++XX++oooOOooOOOooooOOOOOOOOO",
"OOOXXXX+++++++++++++++++++++++XX++++++++++ooOOOOOOOOooooooooooOO",
"o+XX++++++++++++++++++++ooo++++X++OO++++++++OOOOOOOOoooooooooooo",
"+++++++++++ooo+++++++++ooooo+++++OOOO+++++++++OOOOOOooooo+++++++",
"+OOOOOO++ooooooo++oooooooooooooOOOOOOOOOOO+++OOOOOOoo+++++++++++",
"OOOOOOOOOOOOOoooooooooooooooooooooOOOOOOOOOOOOOOOOOOOOOOOOOOOOOO",
"OOOOOOOOOOOOOOOOOooooooooooooooooooooOOOooooooOOOOOOOOOOOOOOOOOO",
"++++OOOOOOOOOOOOOOOOOoooooooooooooooooooooooooOOOOOOOOOOOOOOOOOO",
"+++++OOOOOOOOOOOOoooooooOOOooooooooooooooo+++oOOOOOOOOOOOOOOOOO+",
"++++++++OOOOoooooooooooOOOOOoooooooOOOOOO+++++OOOOOOOOOOOOO+++++",
"+OOO+++++OOOOOOOOOOOOOOOOOOOooooOOOOO++OO++++++OOOOOOOOOOOOOO+++",
"OOOOO+++++OOOOOOOOOOOOOOOOOOOOOOOOO++++++++++++OOOOOOOOOOOOOOOO+",
"OOOOOOOOOOOOOOOOOOOOOOOOOOOOOOOOOO++++++++ooo++++++OOOOOOOOOOOOO",
"OOOOOOOOOOOOOOOOOOOOOOOOOOOOOOOOOooooooooooooo++++++++++oooOOOOO",
"OOOOOOOOOOOOOOOOOOOOOOOOOOOOOOOOoooooOOooooooooooooooooooooooooo",
"oooooooooOOOOOOOOOOOOOOOOOOOOooooooOOOOOoooooooooooooooooooooooo",
"oooooOOOOOOOOOOOOOOOOOOOOOOOOOOOOOOOOOOOOOOooooooooooooooooooooo",
"OOOOOOOOOOOOOOOOOOOOOOOOOOOOOOOOOOOOOOOOOOOOoooOOOOooooooooooooO",
"OOOOOOOOOOOOOOOOOOOXXXXXOOOOXXXXXOOOOOO+++OOooOOOOOOoOOOooOOOOOO",
"OOOOOOOOOOOOOOOOOXXXXXXXXOOXXXXXXXOOOO+++++OooOOOOOOOOOOOOOOOOOO",
"+OOOOOOOOOOOOOOOXXX+++XXXXXXX++++XXOO++++++++ooOOOOOOOOOOOOO++++",
"+OOOOOXXXXXOOXXXXX++++++XXXX+++++++XO+++++++++OOOOOOOOO+++++++++",
"OOOOOXXXXXXXXXXXXX++++++++X+++++++++++++++++++OOOOOO++++++++++++",
"OXXOXXX++XXXXX++XXX+++++++++++++++++++++++++++++OOOO++++++++++OO",
"XXXXXX++++XXX+++++X+++++++++++++++++++++++++++++OOOOOOOOOOOOOOOO",
"XX++XX+++++++++++++++++++++++++OOOO+++++oo+++++++++OOOOOOOOOOOOO",
"X+++++++++++++++++++++oooo++++OOOOOO+++oooo+++++++++OOOOOOOO++XX",
"++++++OOO+++++OOOO+++ooooooOO+OOOOOOOoooooo++++++OOOOOOOOO++++++",
"+++++OOOOO+++OOOoooooooooooOOOOOOOoooooooooOOOOOOOOOOOOO++++++++",
"+++OOOOOOO+++OOoooooooooooOOOOOOOoooooooooooOOOOOOOOOOO+++OOO+++",
"+OOOOOOOOOOO+OOoooooooooooooooOOooooooOOoooooOOOOOOOO++++OOOOO++",
"OOOOOOOOOOOOOooooooooooooooooooooooooOOOOOoooooOOOOOOOOOOOOOOOOO",
"OOOOOOOooooooooooOOOoooooooooooooooooOOOOOOOOOOOOOOOOOOOOOOOOOOO",
"OOOOOOOOOOooooooOOOOOooOOOoooooooOOooOOOOOOOOOOOOOOOOOOoooOOOOOO",
"OOOOOOOOOOOOOoooOOOOOoOOOOOOooooOOOOooOOOOOOOOOOOOOOOOoooooOOOOO",
"OOOOOOO++OOOOOOOOOOOOOOOOOOOOOOOOOOOOOOOOOOOOOOoooOOOooooooOOOOO",
"OOOOOO++++OOOO++++OOOOOOOOOOOOOOOOOOOOOOOOOOOOoooooooooooooOOOOO",
"OOOO++++++++++++++++OOOOOOOOooooOOOOOOOOOOOOOoooooooooooooooooOO",
"ooo++++++++++++++ooooOOoooooooooooOOooooOOOOoooooooooooooooooooo"
};
