/* XPM */
static char *e8251285959747bc926ee5e77e3dc176[] = {
/* columns rows colors chars-per-pixel */
"64 64 6 1 ",
"  c #47ABA9",
". c #161C2E",
"X c #679175",
"o c #79A863",
"O c #9BB94E",
"+ c #BFBA5B",
/* pixels */
"....               ....         .......                         ",
"......   ......   ......       .........           ....         ",
"++++... ........ ...OO.. ..... ...++++..         ........       ",
"+++++......++++....OOOO..........++++++..       ....OOO...      ",
"+++++.....++++++...OOOOO...oo....++++++.......  ...OOOOO...     ",
"+OOO++....+++++++..OOOOO..oooo...+++++......... ..oOOOOOO..     ",
"OOOOOOO+..++++++++..OOOOO.ooo++..+++++..+++++.....OOOOOOO..     ",
"OOOOOOOOO...+OOOO+O.OOOOOooo++++.++++..+++++++..ooOOOOOOO..     ",
"+++OOOOOOO+++OOOOOOOOOOOOOoo++++.++++.++++++++..ooOOOOOOO..     ",
"++++OOOOOOOOOOOOOOOOOOOOOOO++OO+++++++++++++++..ooOOOOO.....    ",
"++++OOO++OOOOOOOOOOOOOOOOOO+OOOO++++++++OOO+...ooooOO........   ",
"++++OO+++++OOOOOOOOOOOOOOOOOOOOOOOOO+++OOOO....oooooO..OOOO...  ",
"++++++++++++++++++++OOOOOOOOOOOOOOOOO++OOOO.OOOoooooOOOOOOOO..  ",
"O+++++++++OOOOOOOOOOOOOOOOOOOOOOOOOOOOOOOOOOOOOOooooOOOOOOOO..  ",
"OOOOOOOOOOOOOooooooOOOOOOOOOOOOOOOOOOOOOOOOOooooooOOOOOOOOOO..  ",
"OOOOOOOOOOOoooooooooOooooOOOOOO+++OOOOOOOOOOooooooOOO..OOOO...  ",
"OOOOOOOOOoooooooooooooooooOOO++++++OOOOOOOOOOooooOOOOOO......   ",
"OOOOOOOOoooooooooooooooooo+++++++++++++oooOOoooooOOOOOOo.....   ",
"OOOOOOooooooOOOOOoooooooooooo+++++++++oooooooOOoooOOOOOOO..     ",
"oOOOoooooooOOOOOOOoooOOOooooooo+++oooooOOoooOOOOooOOOOOOO..     ",
"ooOOOOOOOOOOOOOOOOooOOOOOOOOOOOOOOOOOOOOOOOOOOOOoooOOOOO....    ",
"oooooOOOOOOOOOOOOOOOOOOOOOOOOOOOOOOOOOOooOOOOOoooooooOOOo...    ",
"oOOOOOOOOOOOOOOOOOOOOOOOXXXXXXOOOXXXOoooooOooooooooooooooo..    ",
"OOOOOOOOOXXXXXOOXXXOOO++++XXXXXOXXXXXooooooooooooooooooooo...   ",
"OOOOOOOOXXXXXXXXXXXXO+++++++XXXXXX++XXooooooooooooooooooo...... ",
"OOOOOOXXX++++XXX++XX+++++++++XXXX++++XX++oooOOooOOOooooOOO+++...",
"OOOXXXX+++++++++++++++++++++++XX++++++++++ooOOOOOOOOooooO+++++..",
"o+XX++++++++++++++++++++ooo++++X++OO++++++++OOOOOOOOooooo+++++..",
"+++++++++++ooo+++++++++ooooo+++++OOOO+++++++++OOOOOOoooo++++++..",
"+OOOOOO++ooooooo++oooooooooooooOOOOOOOOOOO+++OOOOOOoo++++++++...",
"OOOOOOOOOOOOOoooooooooooooooooooooOOOOOOOOOOOOOOOOOOOOooo...... ",
"OOOOOOOOOOOOOOOOOooooooooooooooooooooOOOooooooOOOOOOOooooo....  ",
"++++OOOOOOOOOOOOOOOOOoooooooooooooooooooooooooOOOOOOOOOOOoo...  ",
"+++++OOOOOOOOOOOOoooooooOOOooooooooooooooo+++oOOOOOOOOOOOOOO... ",
"++++++++OOOOoooooooooooOOOOOoooooooOOOOOO+++++OOOOOOOOOOOOOOO.. ",
"+OOO+++++OOOOOOOOOOOOOOOOOOOooooOOOOO++OO++++++OOOOOOOOOOOOOOO..",
"OOOOO+++++OOOOOOOOOOOOOOOOOOOOOOOOO++++++++++++OOOOOOOOOOOOOOO..",
"OOOOOOOOOOOOOOOOOOOOOOOOOOOOOOOOOO++++++++ooo++++++OOOOOOOOOOO..",
"OOOOOOOOOOOOOOOOOOOOOOOOOOOOOOOOOooooooooooooo++++++++++oOOOOO..",
"OOOOOOOOOOOOOOOOOOOOOOOOOOOOOOOOoooooOOoooooooooooooooooooOOO...",
"oooooooooOOOOOOOOOOOOOOOOOOOOooooooOOOOOoooooooooooooooooooo....",
"oooooOOOOOOOOOOOOOOOOOOOOOOOOOOOOOOOOOOOOOOooooooooooooo....... ",
"OOOOOOOOOOOOOOOOOOOOOOOOOOOOOOOOOOOOOOOOOOOOoooOOOOoooooo.....  ",
"OOOOOOOOOOOOOOOOOOOXXXXXOOOOXXXXXOOOOOO+++OOooOOOOOOoOOOoo...   ",
"OOOOOOOOOOOOOOOOOXXXXXXXXOOXXXXXXXOOOO+++++OooOOOOOOOOOOOOO..   ",
"+OOOOOOOOOOOOOOOXXX+++XXXXXXX++++XXOO++++++++ooOOOOOOOOOOOO..   ",
"+OOOOOXXXXXOOXXXXX++++++XXXX+++++++XO+++++++++OOOOOOOOO++++.....",
"OOOOOXXXXXXXXXXXXX++++++++X+++++++++++++++++++OOOOOO++++++...+..",
"OXXOXXX++XXXXX++XXX+++++++++++++++++++++++++++++OOOOOOO+++..+++.",
"XXXXXX++++XXX+++++X+++++++++++++++++++++++++++++OOOOOOOOOO.++++.",
"XX++XX+++++++++++++++++++++++++OOOO+++++oo+++++++++OOOOOOO++++..",
"X+++++++++++++++++++++oooo++++OOOOOO+++oooo+++++++++OOOOOOO++...",
"++++++OOO+++++OOOO+++ooooooOO+OOOOOOOoooooo++++++OOOOOOOOO++....",
"+++++OOOOO+++OOOoooooooooooOOOOOOOoooooooooOOOOOOOOOO++++++.....",
"+++OOOOOOO+++OOoooooooooooOOOOOOOoooooooooooOOOOOOOOOO+++++.OO..",
"+OOOOOOOOOOO+OOoooooooooooooooOOooooooOOoooooOOOOOOOOOOO++OOOOO.",
"OOOOOOOOOOOOOooooooooooooooooooooooooOOOOOoooooOOOOOOOOoooOOOOO.",
"OOOOOOOooooooooooOOOoooooooooooooooooOOOOOOOOOOOOOOOOO...ooOOOO.",
"OOOOOOOOOOooooooOOOOOooOOOoooooooOOooOOOOOOOOOOOOOOOOOO...oOOOO.",
"OOOOOOOOOOOOOoooOOOOOoOOOOOOooooOOOOooOOOOOOOOOOOOOOOOoo...OOO..",
"OOOOOOO++OOOOOOOOOOOOOOOOOOOOOOOOOOOOOOOOOOOOOOoooOOOooo........",
"OOOOOO++++OOOO++++OOOOOOOOOOOOOOOOOOOOOOOOOOOOoooooooooo....... ",
"OOOO++++++++++++++++OOOOOOOOooooOOOOOOOOOOOOOooooooooooo..ooo...",
"ooo++++++++++++++ooooOOoooooooooooOOooooOOOOooooooooooo..oooOOO."
};
