/* XPM */
static char *_85f64a9d5ee48c8a9e53e4c7fc8d1c1[] = {
/* columns rows colors chars-per-pixel */
"64 64 6 1 ",
"  c None",
". c #161C2E",
"X c #679175",
"o c #79A863",
"O c #9BB94E",
"+ c #BFBA5B",
/* pixels */
"                            .......                          ...",
"        ......             .........          ......        ....",
"       ........ ....       ...ooo.... ...    ........ ........++",
"      ...OOOO.........  .....ooooo......... ...+++...........+++",
"      ..OOOOOO...............oooooo...+++.....+++++....oooo..+++",
"      ..OOOOOO...OOO.....OO...ooooo..+++++...++++++...oooooo.+++",
"      ..OOOOOOO.OOOOOO..OOOOO.oooo..++++++..+++++++...oooooo.+++",
"      ...OOOOOO.OOOOOO..OOOOO+++oo.+++++++..++++++.....ooo++.+++",
"    ......OOOOOOOOOOOO..OOOO+++++++++++++..++++++..++...o+++++++",
"   ........ooOOOOOOOOOO..OO++OO+++++++++++++++++++++++...+++++++",
"  ...ooo...oooOOOOOOOOOOOOO+OOOO++++++++OOO+++++OO++++OO++++++++",
"  ..oooooo.oooooOOOOOOOOOOOOOOOOOOOO+++OOOOO++OOOOOO+OOOO+++++++",
"  ..ooooooOOOOOOOOOOOOOOOOOOOOOOOOOOO++OOOOO+OOOOOOOOOOOO+++++++",
"  ..oooooOOOOOOOOOOOOOOOOOOOOOOOOOOOOOOOOOOO+OOOOOOOOOOOO+++++OO",
"  ..oooooOOOOOOOOOoOOOOOOOOOOOOOOOOOOOOOOOOOOOOOOOOOOOOOOOOOOOOO",
"  ...ooo.OOOOOOOOoooOooooOOOOOO+++OOOOOOOOOOOOOOOOOOOOOOOOOOOOOO",
"   .......ooooooooooooooooOOO++++++OOOOOOOOOOoooOOOOOOOOOOOOOOOO",
"    ......oooooooooooooooo+++++++++++++oooOOoooooOOOOOOOOOOOOOOO",
"   ...OOO..oOOOOOoooooooooooo+++++++++oooooooOOoooOOOOOOoooOOOOO",
"   ..OOOOOOOOOOOOOoooOOOooooooo+++oooooOOoooOOOOoooOOOOoooooOOOo",
"   ..OOOOOOOOOOOOOooOOOOOOOOOOOOOOOOOOOOOOOOOOOOOOOOOOoooooooooo",
"   ..OOOOOOOOOOOOOOOOOOOOOOOOOOOOOOOOOOooOOOOOooooOOOOoooooooooo",
"    ..OOOOOOOOOOOOOOOOOOXXXXXXOOOXXXOoooooOooooooooOOooooOOOoooo",
"    ........OOOO...OOO++++XXXXXOXXXXXoooooooooooooooooooOOOOOOOO",
"     ...............O+++++++XXXXXX++XXooooooooooooooooooOOOOOOOO",
"    .....++....++++.+++++++++XXXX++++XX++oooOOooOOOooooOOOOOOOOO",
"   ...+++++++.++++++++++++++++XX++++++++++ooOOOOOOOOooooooooooOO",
"  ..++++++++++++++++++++ooo++++X++OO++++++++OOOOOOOOoooooooooooo",
" ..++++++++ooo+++++++++ooooo+++++OOOO+++++++++OOOOOOooooo+++++++",
" ..++++..ooooooo++oooooooooooooOOOOOOOOOOO+++OOOOOOoo+++++++++++",
" ...++..OOOOOoooooooooooooooooooooOOOOOOOOOOOOOOOOOOOOOOOOOOOOOO",
" ......OOOOOOOOOOooooooooooooooooooooOOOooooooOOOOOOOOOOOOOOOOOO",
"  .....OOOOOOOOOOOOOOoooooooooooooooooooooooooOOOOOOOOOOOOOOOOOO",
"    ....OOOOOOOOOoooooooOOOooooooooooooooo+++oOOOOOOOOOOOOOOOOO+",
"   ......OOOoooooooooooOOOOOoooooooOOOOOO+++++OOOOOOOOOOOOO+++++",
"   ...+++OOOOOOOOOOOOOOOOOOOooooOOOOO++OO++++++OOOOOOOOOOOOOO+++",
"  ..O+++++OOOOOOOOOOOOOOOOOOOOOOOOO++++++++++++OOOOOOOOOOOOOOOO+",
" ..OOOOOOOOOOOOOOOOOOOOOOOOOOOOOOO++++++++ooo++++++OOOOOOOOOOOOO",
" ..OOO.OoooOOOOOOOOOOOOOOOOOOOOOOooooooooooooo++++++++++oooOOOOO",
" ..OO..ooooooOOOOOOOOOOOOOOOOOOOoooooOOooooooooooooooooooooooooo",
" ......oooooooOOOOOOOOOOOOOOOooooooOOOOOoooooooooooooooooooooooo",
"  ....OOOOOOooooOOOOOOOOOOOOOOOOOOOOOOOOOOOooooooooooooooooooooo",
"   ..OOOOOOOOOOOOOOOOOOOOOOOOOOOOOOOOOOOOOOOoooOOOOooooooooooooO",
"   .OOOOOOOOOOOOOOOXXXXXOOOOXXXXXOOOOOO+++OOooOOOOOOoOOOooOOOOOO",
"  ..OOOOOOOOOOOOOXXXXXXXXOOXXXXXXXOOOO+++++OooOOOOOOOOOOOOOOOOOO",
"  ..OOOOOOOOOOOOXXX+++XXXXXXX++++XXOO++++++++ooOOOOOOOOOOOOO++++",
"  ...OOO...OOXXXXX++++++XXXX+++++++XO+++++++++OOOOOOOOO+++++++++",
"  ..........XXXXXX++++++++X+++++++++++++++++++OOOOOO++++++++++++",
"   ......++..X++XXX+++++++++++++++++++++++++++++OOOO++++++++++OO",
"   ....+++++++++++X+++++++++++++++++++++++++++++OOOOOOOOOOOOOOOO",
"  ...OOOO++++++++++++++++++++++OOOO+++++oo+++++++++OOOOOOOOOOOOO",
"  ..OOOOOO++++++++++++oooo++++OOOOOO+++oooo+++++++++OOOOOOOO++XX",
"  ..OOOOOO++++OOOO+++ooooooOO+OOOOOOOoooooo++++++OOOOOOOOO++++++",
"  ..OOOOOO+++OOOoooooooooooOOOOOOOoooooooooOOOOOOOOOOOOO++++++++",
"  ...OOOOO+++OOoooooooooooOOOOOOOoooooooooooOOOOOOOOOOO+++OOO+++",
"   ....OOOOO+OOoooooooooooooooOOooooooOOoooooOOOOOOOO++++OOOOO++",
"   ...OOOOOOOooooooooooooooooooooooooOOOOOoooooOOOOOOOOOOOOOOOOO",
"   ..OOooooooooooOOOoooooooooooooooooOOOOOOOOOOOOOOOOOOOOOOOOOOO",
"  ...OOOOOooooooOOOOOooOOOoooooooOOooOOOOOOOOOOOOOOOOOOoooOOOOOO",
" .....OOOOOOOoooOOOOOoOOOOOOooooOOOOooOOOOOOOOOOOOOOOOoooooOOOOO",
" ..OOOOOOOOOOOOOOOOOOOOOOOOOOOOOOOOOOOOOOOOOOOOoooOOOooooooOOOOO",
" .OOOOOO++++OO++++OOOOOOOOOOOOOOOOOOOOOOOOOOOOoooooooooooooOOOOO",
" .OOOOOOO+++++++++++OOOOOOOOooooOOOOOOOOOOOOOoooooooooooooooooOO",
" .OOOOOOO++++++++ooooOOoooooooooooOOooooOOOOoooooooooooooooooooo"
};
