/* XPM */
static char *_605f1da5c8642e69f520e0c5175967a[] = {
/* columns rows colors chars-per-pixel */
"192 64 5 1 ",
"  c None",
". c #9E8776",
"X c #A39681",
"o c #C9AA8E",
"O c #CCB88D",
/* pixels */
"                                                                                                                                                                                                ",
"                             ..                                                                                                                                                                 ",
"                            ...                                                   ...                                                                                                           ",
"               ..          ....  ..                                               ....                                ..                               ..                                       ",
"             ....   ........... ..................   ......................       ..............                    ....    ........................   ................  ...........   ...      ",
"      ...   .....  ...........  ..................  ............................   ...............            ..... .................................  ..............................  ....     ",
"     ....  o....  O...........OO..................oo............................O   ..............oooOOOOO    .....o.................................o  .............................o .....    ",
"    ..... ooOO   OOOOoooOo..OOOOo...OOOOOOOOOoooooooooooooooOOOoooooooo...ooOOOOOO  OoooOoooO..OoooOOOOOOOO  oooooooooooooooOOOoooooooooooooOOOOO..OOoooOoooOOOOoooOOOO....OOooo..oooo XX...    ",
"    ...XXooOO   OOOOOOOOOooooooooooooooOOOOooooooooooooooooooOOoooooooo...oOOOOOOOOOOOOOOooooooooooooooOOOOooooooooooooooooooOOooooooooooooOOOOOOOOOOOOOOooooooooooooooO...oooooooooooo XX..    ",
"    ... ooOO    OOOOOOooooooooooooooooOOOOOoooooooooooOOooooooOOoooooooo..OOOOOOOOOOOOooooooooooooooooOOOOOoooooooooooOOooooooOOooooooooooOOOOOOOOOOOOooooooooooooooooOOO..oooooooooooOO  ..    ",
"       oOOO    OOOOOOooooooooooooooooOOOOOoooooooooooOOOOooooooOOoooooooOOOOOOOOOOOOOooooooooooooooooOOOOOoooooooooooOOOOooooooOOoooooooOOOOOOOOOOOOOooooooooooooooooOOOOOoooooooooooOOOO  .    ",
"       oOOO   OOOOOoooooooooooooooooOOOOOoooooooooooOOOOOooooooOOoooooooOOOOOOOOOOOoooooooooooooooooOOOOOoooooooooooOOOOOooooooOOoooooooOOOOOOOOOOOoooooooooooooooooOOOOOoooooooooooOOOOOo      ",
"      oooo   oooooooooooOOOOOOOOOOOOOOOOOoooooooooooOOOOOOoooooOOoooooooooooooooooooooooOOOOOOOOOOOOOOOOOoooooooooooOOOOOOoooooOOoooooooooooooooooooooooOOOOOOOOOOOOOOOOOoooooooooooOOOOOO.     ",
"    ..oooo  ooooooooooooOOOOOOOOOOOOOOOOoooooooooooOOOOOOOOoooooOOooooooooooooooooooooooOOOOOOOOOOOOOOOOoooooooooooOOOOOOOOoooooOOooooooooooooooooooooooOOOOOOOOOOOOOOOOoooooooooooOOOOOOO..    ",
"    ..oo    ooooooooooooOOOOOOOOOOOOOOOoooooooooooOOOoOOOOOooooooOOoooooooooooooooooooooOOOOOOOOOOOOOOOoooooooooooOOOoOOOOOooooooOOoooooooooooooooooooooOOOOOOOOOOOOOOOoooooooooooOOOoOOOO..    ",
"    ..O    ooooooooOOOoOOOOOOOOOOOOOOOoooooooooooOOOoOOOOOOOOoooooOooOOooooooooooooOOOoOOOOOOOOOOOOOOOoooooooooooOOOoOOOOOOOOoooooOooOOooooooooooooOOOoOOOOOOOOOOOOOOOoooooooooooOOOoOOOOO..    ",
"    ..O   ooooooooOOOOOOOOOOOOOOOOOOOoooooooooooOOOOoOoOOOOOOooooooOOOOoooooooooooOOOOOOOOOOOOOOOOOOOoooooooooooOOOOoOoOOOOOOooooooOOOOoooooooooooOOOOOOOOOOOOOOOOOOOoooooooooooOOOOoOoOOO..    ",
"    ..   oooooooooOOOOOOOOOOOOOOOOOOOoooooooooOOOOOoooOoOOOOOooooOOOOOooooooooooooOOOOOOOOOOOOOOOOOOOoooooooooOOOOOoooOoOOOOOooooOOOOOooooooooooooOOOOOOOOOOOOOOOOOOOoooooooooOOOOOoooOoOO..    ",
"    ..  oooooooooOOOOOOOOOOOOOOOOOOOOOoooooooOOOOOOooooOOOOOOOooOOOOoooooooooooooOOOOOOOOOOOOOOOOOOOOOoooooooOOOOOOooooOOOOOOOooOOOOoooooooooooooOOOOOOOOOOOOOOOOOOOOOoooooooOOOOOOooooOOOO.    ",
"    .oooooooooooOOOOoooOOOOOOOOOOOOOOOooooooOOOOOOoooooOOOOOOooOOOOoooooooooooooOOOOoooOOOOOOOOOOOOOOOooooooOOOOOOoooooOOOOOOooOOOOoooooooooooooOOOOoooOOOOOOOOOOOOOOOooooooOOOOOOoooooOOOO.    ",
"    oooooooooooOOOOooooOOOOOOOOOOoOOOOOoooooOOOOOoooooooOOOooOOOOooooooooooooooOOOOooooOOOOOOOOOOoOOOOOoooooOOOOOoooooooOOOooOOOOooooooooooooooOOOOooooOOOOOOOOOOoOOOOOoooooOOOOOoooooooOOO.    ",
"    ooooooooooOOOOooooOOOOOOOOOOoooOOOOooooOOOOooooooooooOOoOOOOooooooooooooooOOOOooooOOOOOOOOOOoooOOOOooooOOOOooooooooooOOoOOOOooooooooooooooOOOOooooOOOOOOOOOOoooOOOOooooOOOOooooooooooOO.    ",
"    oooooooooOOOOooooOOOOOOOOOOoooooOOOooOOOOOoooooooooooooOOOOOOOoooooooooooOOOOooooOOOOOOOOOOoooooOOOooOOOOOoooooooooooooOOOOOOOoooooooooooOOOOooooOOOOOOOOOOoooooOOOooOOOOOooooooooooooo.    ",
"    .oooooooOOOOooooOOOOOOOOOOooooooOOOOOOOOOooooOOooooooOOOOOOOOOooooooooooOOOOooooOOOOOOOOOOooooooOOOOOOOOOooooOOooooooOOOOOOOOOooooooooooOOOOooooOOOOOOOOOOooooooOOOOOOOOOooooOOooooooOO.    ",
"   o.ooooooOOOOooooOOOOOOOOOOOoooooooOOOOOOOoooOOOOOOOooOOOOOOOOOOoooooooooOOOOooooOOOOOOOOOOOoooooooOOOOOOOoooOOOOOOOooOOOOOOOOOOoooooooooOOOOooooOOOOOOOOOOOoooooooOOOOOOOoooOOOOOOOooOOO.    ",
"   o.oooooOOOOooooOOOOOOOOOOOooooooooOOOOOOoooOOOOOOOoooOOOOOOOOOOooooooooOOOOooooOOOOOOOOOOOooooooooOOOOOOoooOOOOOOOoooOOOOOOOOOOooooooooOOOOooooOOOOOOOOOOOooooooooOOOOOOoooOOOOOOOoooOOO.    ",
"    .oooooOOOooooOOOOOOOOOOOOooooooOOOOOOooooOOOOOOOooooooOOOOOOOOooooooooOOOooooOOOOOOOOOOOOooooooOOOOOOooooOOOOOOOooooooOOOOOOOOooooooooOOOooooOOOOOOOOOOOOooooooOOOOOOooooOOOOOOOooooooO.    ",
"    .ooooOOOooooOOOOOOOOOOOOOoooooOOOOOOooooOOOOOOOooooooooOOOOOoooooooooOOOooooOOOOOOOOOOOOOoooooOOOOOOooooOOOOOOOooooooooOOOOOoooooooooOOOooooOOOOOOOOOOOOOoooooOOOOOOooooOOOOOOOoooooooo.    ",
"    .ooOOOoooooOOOOOOOOOOOOOOooooOOOOOOoooOOOOOOOOoooooooooOOOOOOooooooOOOoooooOOOOOOOOOOOOOOooooOOOOOOoooOOOOOOOOoooooooooOOOOOOooooooOOOoooooOOOOOOOOOOOOOOooooOOOOOOoooOOOOOOOOooooooooo.    ",
"    ..OOOOooooOOOOOOOOOOOOOOOOooOOOOOOoooOOOOOOOOoooooooooooOOOOOOooooOOOOooooOOOOOOOOOOOOOOOOooOOOOOOoooOOOOOOOOoooooooooooOOOOOOooooOOOOooooOOOOOOOOOOOOOOOOooOOOOOOoooOOOOOOOOooooooooo..    ",
"    ..OOooooOOOOOOOOOOOOOOOOOOOOOOOOOooooOOOOOOOoooooooooooooOOOOOoooOOOooooOOOOOOOOOOOOOOOOOOOOOOOOOooooOOOOOOOoooooooooooooOOOOOoooOOOooooOOOOOOOOOOOOOOOOOOOOOOOOOooooOOOOOOOoooooooooo.     ",
"      OooooOOOoooOOOOOOOOOOOOOOOOOOooooOOOOOOOOoooooooooooooooOOoooooOOooooOOOoooOOOOOOOOOOOOOOOOOOooooOOOOOOOOoooooooooooooooOOoooooOOooooOOOoooOOOOOOOOOOOOOOOOOOooooOOOOOOOOooooooooooooo    ",
"      ooooOOOOoooOOOOOOOOOOOOOOOOOooooOOOOOOOOOoooooooooooooooooooooOOooooOOOOoooOOOOOOOOOOOOOOOOOooooOOOOOOOOOoooooooooooooooooooooOOooooOOOOoooOOOOOOOOOOOOOOOOOooooOOOOOOOOOooooooooooooo    ",
"      oooOOOOOOoooOOoooooooOOOOOOOOooOOOOOOOOOoooooOoooooooooooooooOOooooOOOOOOoooOOoooooooOOOOOOOOooOOOOOOOOOoooooOoooooooooooooooOOooooOOOOOOoooOOoooooooOOOOOOOOooOOOOOOOOOoooooOoooooooo    ",
"    OoooOOOOOOOoooOOooooooOOOOOOOOOOOOOOOOOOOoooooOOoooooooooooooOOOOoooOOOOOOOoooOOooooooOOOOOOOOOOOOOOOOOOOoooooOOoooooooooooooOOOOoooOOOOOOOoooOOooooooOOOOOOOOOOOOOOOOOOOoooooOOoooooooo    ",
"    OOOOOOOOOOOOoooOoooooOOOOOOOOOOOOOOOOOOOooooooOoooooOOoooooooOOOOOOOOOOOOOOOoooOoooooOOOOOOOOOOOOOOOOOOOooooooOoooooOOoooooooOOOOOOOOOOOOOOOoooOoooooOOOOOOOOOOOOOOOOOOOooooooOoooooOOoo    ",
"    OOOOOOOOOOOOooooooooOOOOOOOOOOOOOOOOOOOoooooOOooooooOOoooooooOOOOOOOOOOOOOOOooooooooOOOOOOOOOOOOOOOOOOOoooooOOooooooOOoooooooOOOOOOOOOOOOOOOooooooooOOOOOOOOOOOOOOOOOOOoooooOOooooooOOoo    ",
"    OOOOOOOOOOOOooooooooOOOOOOOOOOOOOOOOOOooooooOoooooooOOoooooooOOOOOOOOOOOOOOOooooooooOOOOOOOOOOOOOOOOOOooooooOoooooooOOoooooooOOOOOOOOOOOOOOOooooooooOOOOOOOOOOOOOOOOOOooooooOoooooooOOoo    ",
"    .OOOOOOOOOOOOooooooOOOOOOOOOOOOOOOOOOooooooOooooooooOOOooooooOOOOOOOOOOOOOOOOooooooOOOOOOOOOOOOOOOOOOooooooOooooooooOOOooooooOOOOOOOOOOOOOOOOooooooOOOOOOOOOOOOOOOOOOooooooOooooooooOOOo    ",
"    .OOooooOOOOOOoooooOOOOOOOOOOOOOOOOOOOooooOOoooooooooOOOooooooOOOOOOooooOOOOOOoooooOOOOOOOOOOOOOOOOOOOooooOOoooooooooOOOooooooOOOOOOooooOOOOOOoooooOOOOOOOOOOOOOOOOOOOooooOOoooooooooOOOo    ",
"    .OOoooooOOOOOoooooOOOOOOoooOOOOOOOOoooooOOoooooooooooOOOoOOOooOOOOOoooooOOOOOoooooOOOOOOoooOOOOOOOOoooooOOoooooooooooOOOoOOOooOOOOOoooooOOOOOoooooOOOOOOoooOOOOOOOOoooooOOoooooooooooOOO    ",
"    .oooooooOOOoooooooOOOOOooooOOOOOOOoooooOOooooooooooooOOOOOOOoooOOoooooooOOOoooooooOOOOOooooOOOOOOOoooooOOooooooooooooOOOOOOOoooOOoooooooOOOoooooooOOOOOooooOOOOOOOoooooOOooooooooooooOOO    ",
"    .oooooOOOOoooooOoooOOOooooOOOOOOOOooooOOoooooooooooooOOOOOOOooOOooooooOOOOoooooOoooOOOooooOOOOOOOOooooOOoooooooooooooOOOOOOOooOOooooooOOOOoooooOoooOOOooooOOOOOOOOooooOOoooooooooooooOOO    ",
"    .oooOOOOOOoooOOOOoooOooooOOOOOOOooooOOOoooooooOOoOOOoOOOOOOOooOoooooOOOOOOoooOOOOoooOooooOOOOOOOooooOOOoooooooOOoOOOoOOOOOOOooOoooooOOOOOOoooOOOOoooOooooOOOOOOOooooOOOoooooooOOoOOOoOOO    ",
"    .ooOOOOOOOOOOOOOOoooooooOOOOOOOOooooOOooooooooOOOOOOOOOOOOOOoOoooooOOOOOOOOOOOOOOoooooooOOOOOOOOooooOOooooooooOOOOOOOOOOOOOOoOoooooOOOOOOOOOOOOOOoooooooOOOOOOOOooooOOooooooooOOOOOOOO      ",
"    .oOOOOOOOOOOOOOOOooooooOOOOOOOOOOOOOOooooooooooOOOooOOOOOOOOooooooOOOOOOOOOOOOOOOooooooOOOOOOOOOOOOOOooooooooooOOOooOOOOOOOOooooooOOOOOOOOOOOOOOOooooooOOOOOOOOOOOOOOooooooooooOOOooO       ",
"     OOOOOOOOOOOOOOOoooooOOOOOOOOOOOOOOOoooooooooOOOOooOOOOOOOOOooooOOOOOOOOOOOOOOOOoooooOOOOOOOOOOOOOOOoooooooooOOOOooOOOOOOOOOooooOOOOOOOOOOOOOOOOoooooOOOOOOOOOOOOOOOoooooooooOOOOooOO       ",
"      OOOOOOOOOOOOOoooooOOOOOOOOOOOOOOOoooooooooOOOOOoOOOOOOOOOoooooOOOOOOOOOOOOOOOoooooOOOOOOOOOOOOOOOoooooooooOOOOOoOOOOOOOOOoooooOOOOOOOOOOOOOOOoooooOOOOOOOOOOOOOOOoooooooooOOOOOoOO   O    ",
"       OOOOOOOOOOoooooOOOOOOOOOOOOOOOOoooooooooOOOOooOOOOOOOOooooooOOOOOOOOOOOOOOoooooOOOOOOOOOOOOOOOOoooooooooOOOOooOOOOOOOOooooooOOOOOOOOOOOOOOoooooOOOOOOOOOOOOOOOOoooooooooOOOOooOO   OO    ",
"   OO  OOOOOOOOOoooooOOOOOOOOOOOOOOOOOoooooooOOOOOooooooOOOOoooooOOOOOOOOOOOOOOOoooooOOOOOOOOOOOOOOOOOoooooooOOOOOooooooOOOOoooooOOOOOOOOOOOOOOOoooooOOOOOOOOOOOOOOOOOoooooooOOOOOoooo    OO    ",
"   OO   OOOOOOOOooooOOOOOOOOOOOOOOOOOoooooooOOOOooooooooOOOoooooOOOOOOOOOOOOOOOOooooOOOOOOOOOOOOOOOOOoooooooOOOOooooooooOOOoooooOOOOOOOOOOOOOOOOooooOOOOOOOOOOOOOOOOOoooooooOOOOooooo    OOo    ",
"   OOO  OOOoOOooooOOOOOOOOOOOOOOOOoooooooooOOOOoooooOOooOOooooooOOOOOOOOOOOoOOooooOOOOOOOOOOOOOOOOoooooooooOOOOoooooOOooOOooooooOOOOOOOOOOOoOOooooOOOOOOOOOOOOOOOOoooooooooOOOOooooo    OOoo    ",
"    OO   OOoooooooOOOOOOOOOOOOOOoooooooooOOOOOOOOOOOOOOOOOooooooOOOOOOOOOOOoooooooOOOOOOOOOOOOOOoooooooooOOOOOOOOOOOOOOOOOooooooOOOOOOOOOOOoooooooOOOOOOOOOOOOOOoooooooooOOOOOOOOOO   OOOOo     ",
"    OOO   ooooooOOOOOOOOOOOOOOOoooooooooOOOOOOOOOOOOOOOOOOooooooOOOOOOOOOOooooooOOOOOOOOOOOOOOOoooooooooOOOOOOOOOOOOOOOOOOooooooOOOOOOOOOOooooooOOOOOOOOOOOOOOOoooooooooOOOOOOOOOOO  OOOOO      ",
"    OOOO  oooOOOOOOOOooOOOOOOOOOOOOOOOOOOOOOOOOOOOOOOOOOOOooooooOOOOOOOOoooooOOOOOOOOooOOOOOOOOOOOOOOOOOOOOOOOOOOOOOOOOOOOooooooOOOOOOOOoooooOOOOOOOOooOOOOOOOOOOOOOOOOOOOOOOOOOOOOOOOOOO       ",
"     OOO   OOOOOOOOOoooOOOOOOOOOOOOOOOOOOOOOOOOOOOOOOOOOOoooooOOOOOOOOOOoooOOOOO  OOoooOOOOOOOOOOOOOOOOOOOOOOOOOOOOOOOOOOoooooOOOOOOOOOOoooOOOOOOOOOoooOOOOOOOOOOOOOOOOOOOOOOOOOOOOOOOOO        ",
"     Oooo  OOOOOOOOooooOOOOOOOOOOOOOOOOOOOOOOOOOOOOOOOOOOoooooOOOOOOOOooooOOOOOO   ooooOOOOOOOOOOOOOOOOOOOOOOOOOOOOOOOOOOoooooOOOOOOOOooooOOOOOOOOOooooOOOOOOOOOOOOOOOOOOOOOOOOOOOOOOOOO        ",
"      ooo   OOOOOooooOOOOOOOooooooooooOOooooooOOOOoooOOOoooooooOOOOOOooooOOOOOOOO  ooOOOOOOOooooooooooOOooooooOOOOoooO  oooooooOOOOOOooooOOOOOOOOooooO  OOOOooooooooooOOooo   OOOOoooOO         ",
"      oooO  OOOOooooOOOOOOOOoooooooooooooooooOOOOooooOOOooooooOOOOOOoooooOOOO       OOOOOOOO  oooooooooooooooOOOOooo   OooooooOOOOOOoooooOOOOOOOooooOO   OOOoooooooooooooo    OOOooooO          ",
"       oOO   OOo  ooOOOOOOOoooooooooooooooooOOOOoooOOOO   oooOOOOOooooooOO              OOO   ooooooooooooo           OOoooooOOOOOooooooOOOOOOOoooooOOO   Oooooooooooooooo   OOOoooOO           ",
"              ooo                                                                       OO                            OOO                                  oo                                   ",
"               oo                                                                      OOO                                                                                                      ",
"                                                                                       OO                                                                                                       ",
"                                                                                                                                                                                                "
};
