/* XPM */
static char *ac5f519067954c359a0fc69b978fd6dcWrCpbCdP7LT1y19c[] = {
/* columns rows colors chars-per-pixel */
"64 64 6 1 ",
"  c 0x0FFFF",
". c #161C2E",
"X c #5A4646",
"o c #866353",
"O c #B48355",
"+ c #DAB570",
/* pixels */
"   ...OOOOOOOOOOOOoooooooooooooooOOOOOOOOOOOOOOOOOOOOOOOOO...   ",
"   ..OOOOOOOOOOOOOOOOOOOOOOOOOOOOOOOOOOOOOOOOOOOOOOOOOOOOOO..   ",
"   ..OOOOOOOOOOOOOOOOOOOOOOOOOOOOOOOOOOOOOOOOOOOOOOOOOOOOOO..   ",
"   .........OOOOOOOOOOOOOOOOOOOOOOOOXXXXXooooOOOOOO..........   ",
"   ...OOOOOOOOooooXXXXXXXXXXXXXXXXXXXooooooooOOOOOOOOOOOOO...   ",
"   ..OOOOOOOOOOOOOOOOOOOOOOOOOOOOOOOOOOOOOOOOOOOOOOOOOOOOOO..   ",
"   ..OOOOOOOOOOOOOOOOOOOOOOOOOOOOOOOOOOOOOOOOOOOOOOOOOOOOOO..   ",
"   ..OOOOOOOOOOOOOOOOOOOOOOOOOOOOOOOOOOOOOOOOOOOOOOOOOOOOOO..   ",
"   ..OOOOOOOOOOOOOOOOOOOOOOOOOOOOOOOOoo...oooooooOOOOOOOOOO..   ",
"   ..OOOOOOOOOOOOOOOOOOOOOOOOOOOOO.....oo.............OOOOO..   ",
"   ..OOOOOOOOOOOOOOOOOOOOOOOOOOOOOOOOOOOOOOOOoooooOOOOOOOOO..   ",
"   ..OOOOOOOOOOOOOOOOOOOOOOOOOOOOOOOOOOOOOOOOOOOOOOOOOOOOOO..   ",
"   ..OOOOOOOOOOOOOOOOOOOOOOOOOOOOOOOOOOOOOOOOOOOOOOOOOOOOO+..   ",
"   ...OOOOOOOOOOO+++++++++++++++OOooooooooooooOOOOOOOO++++...   ",
"    ............XXXXXoooooooooooooooooo..XX.................    ",
"   ..............XXXXXXXXXXXXXXXXXXXXXXXXXX..................   ",
"   ...OOOOOOOOOOOOooooooooooooooooooooooOOOOOOOOOOOOOOOOOO...   ",
"   ..OOOOOOOOOOOOOOOOOOOOOOOOOOOOOOOOOOOOOOOOOOOOOOOOOOOOOO..   ",
"   ..OOOOOOOOOOOOOOOOOOOOOOOOOOOOOOOOOOOOOOOOOOOOOOOOOOOOOO..   ",
"   .........OOOOOOOOOOOOOOOOOOOOOOOO.....ooooOOOOOO..........   ",
"   ...OOOOOOOOoooo...................ooooooooOOOOOOOOOOOOO...   ",
"   ..OOOOOOOOOOOOOOOOOOOOOOOOOOOOOOOOOOOOOOOOOOOOOOOOOOOOOO..   ",
"   ..OOOOOOOOOOOOOOOOOOOOOOOOOOOOOOOOOOOOOOOOOOOOOOOOOOOOOO..   ",
"   ..OOOOOOOOOOOOOOOOOOOOOOOOOOOOOOOOOOOOOOOOOOOOOOOOOOOOOO..   ",
"   ..OOOOOOOOOOOOOOOOOOOOOOOOOOOOOOOOoo...oooooooOOOOOOOOOO..   ",
"   ..OOOOOOOOOOOOOOOOOOOOOOOOOOOOO.....oo.............OOOOO..   ",
"   ..OOOOOOOOOOOOOOOOOOOOOOOOOOOOOOOOOOOOOOOOoooooOOOOOOOOO..   ",
"   ..OOOOOOOOOOOOOOOOOOOOOOOOOOOOOOOOOOOOOOOOOOOOOOOOOOOOO+..   ",
"   ..++OOOOOOOOOOOOOOOOOOOOOOOOOOOOOOOOOOOOOOOOOOOOOOOOOO++..   ",
"   ...++++++++++OOOOOOOOOOOOOOOOOOooooooooooooOO++++++++++...   ",
"    ............XXXXXooooooooooooooooooXXX..................    ",
"    ...............XXXXXXXXXXXXXXXXXXXXXX...................    ",
"   ...OOOOOOOOOOOOOoooooooooooooooOOOOOOOOOOOOOOOOOOOOOOOO...   ",
"   ..OOOOOOOOOOoooooooOOOOOOOOOOOOOOOOOOOOOOOOOOOOOOOOOOOOO..   ",
"   ..OOOOOOOOOOOooooooooOOOOOOOOOOOOOOOOOOOOOOOOOOOOOOOOOOO..   ",
"   ..OOOO.....ooo.XXXXXXXXXXXXXXXoooooOOOOOOOOOOOOO....OOOO..   ",
"   ..OOOOOOOOO....oooooOOOOOOOOOOOOOOOOOOOOOOOOOOOOOOOOOOOO..   ",
"   ..OOOOOOOOOOOOOOOOOOOOOOOOOOOOOOOOOOOOOOOOOOOOOOOOOOOOOO..   ",
"   ..OOOOOOOOOOOOOOOOOOOOOOOOOOOOOOOOOOOOOOOOOOOOOOOOOOOOOO..   ",
"   ..ooOOOOOOOOOOOOOOOOOOOOOOOOOOOOOOOOOooooo.........OOOoo..   ",
"   ......ooooOOOOOOOOOOOOOOOOOOOOOOOOOO...ooooooOOOOOOo......   ",
"   ..OOOOOOOOOOOOOOOOOOOOOOOOOOOOOOOOOOOOOOOOOOOOOOOOOOOOOO..   ",
"   ..OOOOOOOOOOOOOOOOOOOOOOOOOOOOOOOOOOOOOOOOOOOOOOOOOOOOOO..   ",
"   ..+OOOOOOOOOOOOOOOOOOOOOOOOOOOOOOOOOOOOOOOOOOOOOOOOOOOO+..   ",
"    .+OOOOOOOOOOOOOOOOOOOOOOOOOOOOOOOOOOOOO++++++OOOOOOOO++..   ",
"    ..+++++OOooooooooooooooooooooooOOO++++++++++++++++++++..    ",
"    ..............XXXXXXXXXXXXXXXXXXXXXXX...................    ",
"    ..............XXXoooooooooooOOOOOOOXXX..................    ",
"   ...OOOOOOOOOOOOOOOOOOOOOOOOOOOOOOOOOOOOOOooooOOOOOOOOOO...   ",
"   ..OOOOOOOOOOOOOOOOOOOOOOOOOOOOOOOOOOOOOOOOOOOOOOOOOOOOOO..   ",
"   ..OOOOOOOOOOOOOOOOOOOOOOOOOOOOOOOOOOOOOOOOOOOOOOOOOOOOOO..   ",
"   ..OOOOOOOOOOOOOOOOOOOOOOOOOOOOOOOOOOOOOOOOOOOOOOOOOOOOOO..   ",
"   ..OOOOOOOOOOOOOOOOOOOOOOOOOOOOOXXXXXooXXX..........OOOOO..   ",
"   ..OOOOOOOOOOOOOOOOOOOOOOOOOOOOOOOOOOXXXOOOOOOOOOOOOOOOOO..   ",
"   ..OOOOOOOOOOOOOOOOOOOOOOOOOOOOOOOOOOOOOOOOOOOOOOOOOOOOOO..   ",
"   ...OOOOOOOOOOOOOOOOOOOOOOOOOOOOOOOOOOOOOOOOOOOOOOOOOOOO...   ",
"   .........ooooooOOOOOOOOOOOOOOOOOOOOOoooooooooooo..........   ",
"   ..OOoooooooooOOOOOOOOOOOOOOOOOOOOOOOOOOOOooooooooOOoooOO..   ",
"   ..+OOOOOOOOOOOOOOOOOOOOOOOOOOOOOOOOOOOOOOOOOooooOOOOOOOO..   ",
"   ...+OOOOOOOOOOOOOO++++++OOOOOOOOooooooooooooooOOOOOOOOO...   ",
"    ........XXXXXXX+++++++++++++OOOXXXXX....................    ",
"    ...........XXXXXXXXXXXXXXXXXXXXXXXX.....................    ",
"    ..OOOOOOOOOOOOOOOoooooOOooooOOOOOOOOOOOOOOOOOOOOOOOOOO..    ",
"    .OOOOOOOOOOOOOOOOOOOOOOOOOOOOOOOOOOOOOOOOOOOOOOOOOOOOOO.    "
};
