/* XPM */
static char *b3ac1f7eb8634a39bc3a27217e2ecb44c88g8ZWnBSlU0tst[] = {
/* columns rows colors chars-per-pixel */
"64 64 194 2 ",
"   c 0x0FFFF",
".  c #161C2E",
"X  c #1B1E30",
"o  c #1A2433",
"O  c #1A2E32",
"+  c #1E2C38",
"@  c #1C3636",
"#  c #222232",
"$  c #2B2433",
"%  c #2C2936",
"&  c #292538",
"*  c #252A3B",
"=  c #292B39",
"-  c #332635",
";  c #332B3D",
":  c #3E2A38",
">  c #3B2937",
",  c #21313C",
"<  c #283937",
"1  c #34313C",
"2  c #333631",
"3  c #412A39",
"4  c #492E3A",
"5  c #412B37",
"6  c #41353E",
"7  c #52313D",
"8  c #5C343F",
"9  c #1E4137",
"0  c #214B3A",
"q  c #2A4639",
"w  c #24583C",
"e  c #345B3E",
"r  c #28653F",
"t  c #535333",
"y  c #3B2C43",
"u  c #243640",
"i  c #263C43",
"p  c #373946",
"a  c #422E46",
"s  c #443248",
"d  c #4E354D",
"f  c #463A46",
"g  c #5B3745",
"h  c #5E3954",
"j  c #543550",
"k  c #663941",
"l  c #6A3843",
"z  c #6C3945",
"x  c #7A3E46",
"c  c #703C44",
"v  c #613E58",
"b  c #6B3D5B",
"n  c #2B464B",
"m  c #2A4449",
"M  c #315252",
"N  c #375C59",
"B  c #2B7A44",
"V  c #297142",
"C  c #39675D",
"Z  c #2E6C4C",
"A  c #3C6660",
"S  c #3F6C64",
"D  c #3E7863",
"F  c #5B4444",
"G  c #424755",
"H  c #504950",
"J  c #554D52",
"K  c #6D4F4E",
"L  c #684548",
"P  c #7A4046",
"I  c #7B444C",
"U  c #6A435D",
"Y  c #77415A",
"T  c #765456",
"R  c #505562",
"E  c #734862",
"W  c #784A65",
"Q  c #6D5F60",
"!  c #5E636F",
"~  c #417168",
"^  c #407A65",
"/  c #766665",
"(  c #6D717C",
")  c #6E6060",
"_  c #8E474B",
"`  c #85454B",
"'  c #844659",
"]  c #8E4958",
"[  c #994C56",
"{  c #845C56",
"}  c #995855",
"|  c #A24D51",
" . c #AC4E56",
".. c #B14F54",
"X. c #AC5254",
"o. c #A75053",
"O. c #B65555",
"+. c #BF5458",
"@. c #B85A58",
"#. c #8E6259",
"$. c #9A695E",
"%. c #B8625C",
"&. c #A9655D",
"*. c #86506D",
"=. c #8B556C",
"-. c #985978",
";. c #8F5572",
":. c #A15E7D",
">. c #B3596A",
",. c #9E7467",
"<. c #8A7571",
"1. c #B76C61",
"2. c #AF7666",
"3. c #A47062",
"4. c #B97968",
"5. c #B9637C",
"6. c #A46F62",
"7. c #CD585B",
"8. c #DB5C5F",
"9. c #D15C62",
"0. c #C27A69",
"q. c #C66378",
"w. c #DB6570",
"e. c #DC6D6B",
"r. c #E96469",
"t. c #F76666",
"y. c #2F8D48",
"u. c #2D8346",
"i. c #308C48",
"p. c #349E4C",
"a. c #36934A",
"s. c #3D8A5D",
"d. c #3B915B",
"f. c #36A84F",
"g. c #3AA456",
"h. c #39AC53",
"j. c #38B251",
"k. c #3E8362",
"l. c #48B854",
"z. c #58BE57",
"x. c #7DB358",
"c. c #75A755",
"v. c #7CCC5D",
"b. c #71C85B",
"n. c #66C359",
"m. c #85BE5C",
"M. c #B9A840",
"N. c #A1877E",
"B. c #AF894B",
"V. c #D9945F",
"C. c #D9965E",
"Z. c #E2AE55",
"A. c #C5836E",
"S. c #D99765",
"D. c #DDA173",
"F. c #E1AC62",
"G. c #93D462",
"H. c #E9C24D",
"J. c #F0D746",
"K. c #F4E341",
"L. c #F5E44D",
"P. c #E8C174",
"I. c #F7EA70",
"U. c #F6E965",
"Y. c #7C7F89",
"T. c #957F86",
"R. c #AB6282",
"E. c #B67088",
"W. c #A78C82",
"Q. c #B6978A",
"!. c #999BA4",
"~. c #A7AAB0",
"^. c #B6B8BE",
"/. c #BBABA3",
"(. c #8A8E96",
"). c #D0B59C",
"_. c #E7BC9B",
"`. c #CEB6AC",
"'. c #D19494",
"]. c #F8ED88",
"[. c #F9EF94",
"{. c #FFCFB4",
"}. c #F1C4AC",
"|. c #F8EEAD",
" X c #C5C6CB",
".X c #D3D4D8",
"XX c #F1D9C6",
"oX c #FBF6C3",
"OX c #F5E4D7",
"+X c #E2E3E5",
"@X c #FCF7E9",
"#X c white",
"$X c #F6F6F2",
"%X c #F8EBE1",
/* pixels */
"                                                                                                                                ",
"                                                                                                                                ",
"                                                                                                                                ",
"                                                                                                                                ",
"                                                                                                                                ",
"                                                                                                                                ",
"                                                                                                                                ",
"                                                                                                                                ",
"                                                                                                                                ",
"                                    ) {.          . W.                                                                          ",
"                                      {.            ).).                                                                        ",
"                      {.{.          . ) .         . . . . .                                                                     ",
"                        J p       . . . . . .   . . . . . . .                                                                   ",
"            {.            . .   . # | l - l # . . t.+.3 | # .                                                                   ",
"            {.<.      . . . . . . - t.+...t.| . . l - . . . . . .                                             .                 ",
"            G & .   . - 4 . - 3 . - +.8.t.8.3 O 9 9 9 a.p.p.p.e < .                                         2 B.Z.              ",
"            . . . . # +.t.` 7.e.<.1 . ] >.3 . r j.j.j.j.j.j.j.v.m.< .                                     * ).[.K.Z.            ",
"          3 +.8 +.+.3 | t.t.t.e.}.H . U ; o M p.j.f.p.y.9 0 p.l.G.x.< .                                   p +X#X[.J.t           ",
"        . +.t.| t.t.- I  .| | # J T . . . M ~ g.j.w . . G ! . w a.b.r @ .     . . .                     .   . Y.M.H.H.          ",
"        . g t.t.t.t.> ;.*.. l x . ..l . + A ~ d.r . . !..X$X( . o y.j.a.O . . G ~.* . .                 W.N..   F V.V.V.    ,.  ",
"        . - 7.t.r.+.# v R.l t.7.| t.x . N N M . . ( #X%X@XoX].#XG . . . . * `.%X@X$X^.* .                 ).1     V.V.    ,.,.  ",
"          . - o.5.E U ; d - +.t.t.8.. . . . . . .  XXXS.P.L.].#X$XR . . * /.D.F.U.].#X X.                 = f .         ,.,.,.  ",
"          . y -.R.R.-.. . . $ 9.r.c . c | 7 $ | - #X_.C.H.K.L.oX#X$XR . ^.XXV.J.K.K.[.#X!.            . . . . .                 ",
"            . E R.R.:.y . . E R.R.U . x O.O.: O.: #XXXF.K.K.K.K.|.#X+X.  XXXV.K.K.K.U.@X~..         . <.<.& . .                 ",
"          . . ; R.R.R.v . . E R.R.y . - : : $ 0.6 (.#X|.K.K.K.K.I.#X! . R @XOXK.K.K.I.$X~..         / {.W.. Q f .               ",
"          . . . *.R.R.R.y . . U s o B j.i i = 3.A.6 . ^.oX].].].+XR . - 4 R ~.#X#X#X#X^..         . Q {.{.{.{.H .               ",
"          # F . # W R.R.y . . . 0 u.j.j.~ ~ M ; 2.2.{ T ( ( T.'.! . . k | . . ( ( ( ( p .       . . . {.{.{.Q.1                 ",
"        . K 1.g - # & & # . . w f.j.j.j.N N + . # $.2.A.2.2.1.O.P . . # [ 2.2.6 6 # o , + .     . s -.E.=.p & .                 ",
"      . . $ O.O.&.L 8 . . . 0 f.j.j.j.j.. . o n o . f K K K L k 7 u n , 7 K 6.A.A.% + A C +     . d R.R.R.& .                   ",
"      # $ . $ x A.1.O.k . 9 p.j.f.i.O O . . N ~ D O O o o o o o A ~ ~ s.a.o # % % . . o A u .   . h w.w.:.& .                   ",
"      5 O.k . . { I X.A.6 . w B 0 . . . . . A ^ g.j.s.A M M M M ~ ~ s.j.v.c.< . . .   . . . . . & q.t.r.v . .                   ",
"    . : O.X.k . . . : 6 P k . . . . . . . . u ^ g.j.g.d.N N n . , M h.j.v.G.x.. .             . E q.t.5.v .                     ",
"    . | O.O.O.g O.P : . . . x X.7 1 6 6 6 6 6 . V i.p.j.d.~ ~ ~ + . O p.j.z.v.x.q 9 .   . . . . *.q.r.:.d .                     ",
"    7 X.O.O.Y [ O.O.| . . . : ` . $.A.A.A.A.4.{ % . 9 Z ^ ~ ~ ~ S M o @ w j.j.z.l.w . . , M o . s R.R.s .                       ",
"    x O.O.X.b [ O.O.| . $ P # - X 1 2.2.2.2.2.2.4.{ % . n ~ ~ ~ ~ ~ N o . O O O O . . . m S + , < 1 & . .                       ",
"    4 X.O.P Y o.O.O.o.y [ O.' b j y . . . . . . F K K # . A ~ ~ ~ ~ ~ N n n + . . . . . ~ i V n.G.x.< . .                       ",
"    . 7 | 3 g O.O.O.X.b | O.' Y b v y . 9 y.y.w O . . O o u A ~ ~ ~ ~ ~ C , o # L #.. . , O p.l.v.v.a.. .                       ",
"    6 6 . . 7 O.O.O.[ ] O.O.' X.] h . . g.j.j.j.j.9 9 f.u.o . m M M M M + o N 6 0.4.: . o Z h.j.j.j.j.. .                       ",
"    { %.4 . 7 O.O.O.Y ] O.O.| O.] h . i k.j.j.j.j.B B j.j.O . . . . . . o N ~ # ` %.P . o N d.j.j.j.j.. .                       ",
"    . | @.F L | X.7 . k O.| X.[ b h . M D h.j.j.j.B . @ i.o i ~ ~ ~ ~ ~ ~ ~ ~ . k O.P . . n S s.g.g.0 . .                       ",
"    . 8 } A.} k 7 . . : k d ' b b a . u ~ k.h.j.j.0 4 7 . o M ~ ~ ~ ~ ~ ~ ~ ~ . k X.4 . . . m N ~ C + .                         ",
"      . # ` X.1.#.$ % % $ $ j h a $ # . u A C C < # ` O.8 o ~ ~ ~ ~ ~ ~ ~ ~ ~ o 8 : . . & & . o o o .                           ",
"      . . . 6 2.0.O.0.A.%.O.7 . . _ _ 7 . . . . . x O.| 4 o ~ ~ ~ ~ ~ ~ ~ ~ ~ n . . . s 5.q.s . . . .                           ",
"          . . 1 6 x 0.A.%._ # . . : O.O._ _ _ _ _ O.c - . o n ~ ~ ~ ~ ~ ~ ~ n . . . . *.r.t.=.. .                               ",
"              . . . . . . . . . . . . . . . . . . . . . . . . . . . . . . . . .   . d R.w.5.U .                                 ",
"                          . . . . . . . . . . . . . . . . . . . . . . . . . .     . & -.R.R.& .                                 ",
"                                        . . . . . .               . . . . .       . . # & & .                                   ",
"                                        . . . .                   . . . .           . . . .                                     ",
"                                        . . .                   . . .                                                           ",
"                                    . . . .                     . . . . .                                                       ",
"                                    . . . .                     . . . . .                                                       ",
"                                                                                                                                ",
"                                                                                                                                ",
"                                                                                                                                ",
"                                                                                                                                ",
"                                                                                                                                ",
"                                                                                                                                ",
"                                                                                                                                ",
"                                                                                                                                ",
"                                                                                                                                ",
"                                                                                                                                ",
"                                                                                                                                ",
"                                                                                                                                ",
"                                                                                                                                "
};
