/* XPM */
static char *_6842375b63148ebca5982a6c8088df796j0CQPZ3m3UmnUM[] = {
/* columns rows colors chars-per-pixel */
"64 64 219 2 ",
"   c 0x0FFFF",
".  c #161C2E",
"X  c #181F30",
"o  c #1C2333",
"O  c #1F2938",
"+  c #222432",
"@  c #2A2A33",
"#  c #222D3C",
"$  c #232A36",
"%  c #322E36",
"&  c #25303D",
"*  c #2B3338",
"=  c #3C3636",
"-  c #3B3538",
";  c #353736",
":  c #262C2F",
">  c #45393B",
",  c #40373C",
"<  c #484538",
"1  c #56483E",
"2  c #58523A",
"3  c #625C3B",
"4  c #64553F",
"5  c #5F683C",
"6  c #656C36",
"7  c #636737",
"8  c #73723A",
"9  c #293441",
"0  c #2D3B45",
"q  c #2D3E49",
"w  c #273644",
"e  c #323C43",
"r  c #373F45",
"t  c #4E3F40",
"y  c #354047",
"u  c #34434B",
"i  c #3B454A",
"p  c #37494D",
"a  c #3C484C",
"s  c #2F4451",
"d  c #364852",
"f  c #3A4D53",
"g  c #334855",
"h  c #3E5156",
"j  c #3A545E",
"k  c #3E5C64",
"l  c #3C5761",
"z  c #454A4A",
"x  c #594941",
"c  c #5D5648",
"v  c #414755",
"b  c #425355",
"n  c #42565A",
"m  c #455B5E",
"M  c #4A5654",
"N  c #565A54",
"B  c #4A5647",
"V  c #634E42",
"C  c #635243",
"Z  c #6B5747",
"A  c #795C46",
"S  c #775D48",
"D  c #576659",
"F  c #756446",
"G  c #79784B",
"H  c #7C6B57",
"J  c #777653",
"K  c #6A6950",
"L  c #445D62",
"P  c #455F64",
"I  c #4A6263",
"U  c #4C6B6D",
"Y  c #48646A",
"T  c #506A69",
"R  c #5A6B67",
"E  c #53716F",
"W  c #58716F",
"Q  c #4B6D74",
"!  c #466A70",
"~  c #4D7379",
"^  c #557474",
"/  c #567A7B",
"(  c #597C7C",
")  c #567578",
"_  c #536F76",
"`  c #666E66",
"'  c #6A7669",
"]  c #7B7F7E",
"[  c #6D7C70",
"{  c #8B694D",
"}  c #84694A",
"|  c #946E4F",
" . c #887747",
".. c #866653",
"X. c #976E51",
"o. c #9D7453",
"O. c #967854",
"+. c #91784D",
"@. c #A17653",
"#. c #A67B54",
"$. c #AA7C54",
"%. c #A37F5A",
"&. c #817261",
"*. c #7F8A52",
"=. c #5B807F",
"-. c #708873",
";. c #8D943B",
":. c #9AA03C",
">. c #B4BB3F",
",. c #9F864B",
"<. c #958D57",
"1. c #A1854A",
"2. c #A99A46",
"3. c #AC924C",
"4. c #AB855C",
"5. c #A78759",
"6. c #B38255",
"7. c #B68859",
"8. c #B59255",
"9. c #BF9356",
"0. c #A99458",
"q. c #BAB744",
"w. c #B5B25C",
"e. c #969875",
"r. c #908A6A",
"t. c #B89562",
"y. c #A89771",
"u. c #91A873",
"i. c #B7A777",
"p. c #AFAA69",
"a. c #C09954",
"s. c #CDBA4C",
"d. c #CDA453",
"f. c #C3A05C",
"g. c #D1AE52",
"h. c #D3B351",
"j. c #D5B850",
"k. c #C5AD50",
"l. c #C59A61",
"z. c #CBAF6C",
"x. c #B2C470",
"c. c #D9C84B",
"v. c #DAD547",
"b. c #D5C355",
"n. c #E1DB49",
"m. c #E0DB5F",
"M. c #E3E247",
"N. c #E7EB45",
"B. c #E9F044",
"V. c #EAF14F",
"C. c #D7D46E",
"Z. c #E1D66E",
"A. c #EBF06D",
"S. c #DDE34E",
"D. c #537D82",
"F. c #5C8485",
"G. c #5D8B8B",
"H. c #578386",
"J. c #5F9293",
"K. c #5F8F92",
"L. c #638485",
"P. c #658B8A",
"I. c #75958B",
"U. c #639494",
"Y. c #6B9593",
"T. c #6A9699",
"R. c #669D9D",
"E. c #6B9C9D",
"W. c #699896",
"Q. c #719D9D",
"!. c #749792",
"~. c #728F89",
"^. c #6DA19E",
"/. c #7BA19D",
"(. c #729EA2",
"). c #6DA3A3",
"_. c #74A4A3",
"`. c #74AAAB",
"'. c #79AAAC",
"]. c #79A7A4",
"[. c #7DAEB1",
"{. c #7CB2B3",
"}. c #95A989",
"|. c #8EAC94",
" X c #AFA984",
".X c #84ADA7",
"XX c #8DB5A6",
"oX c #88B3AB",
"OX c #94B9A9",
"+X c #81B4B5",
"@X c #85BBBC",
"#X c #88BEBF",
"$X c #85B8B7",
"%X c #97BFB0",
"&X c #A79685",
"*X c #CBB98A",
"=X c #B2CA96",
"-X c #9BC4B8",
";X c #94C1B7",
":X c #A4CBBD",
">X c #A7C9B4",
",X c #ADC9B0",
"<X c #D5C187",
"1X c #C8CC94",
"2X c #C7C380",
"3X c #E7DD83",
"4X c #E7E388",
"5X c #EFF18B",
"6X c #F1F68A",
"7X c #EDE899",
"8X c #C7C0A1",
"9X c #F4F8A5",
"0X c #F2EFB0",
"qX c #8CC3C4",
"wX c #92C6C3",
"eX c #9CC9C0",
"rX c #F9FBD0",
"tX c #F7F8C5",
"yX c #F4EFEA",
/* pixels */
"                                                                                                                                ",
"                                                                                                                                ",
"                                                                                                                                ",
"                                                                                                                                ",
"                                                                                                                                ",
"                                                                                                                                ",
"                                                                                                                                ",
"                                                                                                                                ",
"                                                                                                                                ",
"                                                          . . & m f u $ .                                                       ",
"                                                . Y s k U.U./ ( R.U.U.G.U ^ K <.f .                                             ",
"                                              # Q $XY {.+X`.R.F.R.R.R.R.G.R.' }.].P w                                           ",
"                                            # F.{.@XT.Q.).).).T.T.).{.{.).`.T.K.#X{.F.#                                         ",
"                                      . # . f G.{.#X|.p.$XqX'.G.Q.qXqXqX@X].f R.#X`.G.f . # .                                   ",
"                                    . k J.$ m ) _.>X=X3X-.R.R.R.G.T.#X@X{.Q ) @X-X).) m 9 J.k .                                 ",
"                                  k f D.-.e I I G.R.Y.D F.`.R.R.R.R.R.F.'.F.W I.R.G.I h q G.D.d l                               ",
"                                . G.F.( *X+.F.K.).U.^ I ^ `.`.[.$XL.F.Q.qX!.<.b.}.).T.F.I R./ G.D..                             ",
"                              . 0 H./ L 4XF ( qX#XE.d q T _.qX+X_.R L {.R.Y 1.tX8XqXqXY./ R.I F.~ q                             ",
"                              q T b b a i q ^ oX:X;XE.# E R.R.`.oXXX^ R.R./ F c.u.$X].) u y a f n T u                           ",
"                            o h I 0 z 0.* L G.R._.G.w w ) R.R.R.R.R.h R.R.G.9 y P.).R.G.n 9 e 9 u I h X                         ",
"                          0 b y d $X=X0X< ` L.R.G.`.qX#X=.^ G.R.R.G.f F.).T.].$XT.H.R./ T d D.qX+Xq y h 9                       ",
"                        y T I & ( qXI.<.c z.0.i n E.#XqXqX$XP.P F.^ 9 ^ {.wX:X>X].d # w U ).#XqXqX) $ h I e                     ",
"                        b T 0 m / @XqX-XC.9Xb.z T G.).-X>X,X>X9 m d s L ) !.].R.U.T n [ /.qXqX#X{.) n q T b                     ",
"                      $ u p # T =.R._.}.B.m.f.& T / U.R.^._./ m +X[.qXwX.XY U.R.Y.I  .k.i.E.{.R.R.=.T & c N $                   ",
"                    . # p X # h T R.R.R.-.F z q T U.R.R.R.R.U w L.`.+XOXP.l R.' i.M q.A.9Xu.R.R.R.^ h 9 G r.& .                 ",
"                    o I I 0 T U._.P Q ).G.n m # L R.R.R.R.U.W n G.R.R.R.D.f F.2 4X< 3.b.S.K U.! P _.U.I ; D I .                 ",
"                  # y ` ` & T $XqX$XE.+X_.I 9 q E.F.U.R.R.) t. XU.G.`.`.D.E.qXL.|.T.z K -.T.$XE.qXqX$XT q T T y .               ",
"                  n N z.s.' R.qXqXqXqXqXqX_.u L '.qX].`.U.U H <.I u T.#X>X-X`.).).'.I d _.qXqXqXqXqXqXT.f m I b u               ",
"                  L z A.h.u R.`.{.qX:X:XXX( f f ) {.eX:X:X:X@XT.^ w ^ R.R.R.R.R.R.^ f n ( .X:X:X-X%XoXR.U & 9 b I               ",
"                  y a % c j R.R.R.'.XX.X( T f f T G.R.XXXXXX_.R.^ f T G.R.R.R.R.G.T f n T =..XXXXX!.Y.R.Q & & a y               ",
"                O i p u U.j G.R.R.R.R.R.F.T u o U U.R.R.R.R.R.~ Z S n H.R.R.R.R.U.L f p T ( R.R.~ 2. XH.j U.u e a .             ",
"                o a o I ( `.qX{.).R.R.R.G.q . @.| ..' r.e.y.} 5.z.l.O.} { F r.< } | 5.. d G.Y.r.N p.x.'._./ ` G z .             ",
"                $ e 9 T T ^ oX#XqX@X).U.E I 9 C 4.O.x +.4.t.C H t.%.Z c t.%.H x 4.4.Z w I U 5.Z.2XD ].Q.) T Z 4Xr $             ",
"                o 9 _./ R y.8.[ `.`.U.n T T f A #.6.V @.#.6.A } 6.@.{ A 6.6.@.x 6.#.A n T n +.7X9Xp./ T T T U u.# $             ",
"                d G.qX#Xx.tXV.8 I r.P.q T f o A $.@.1 { 7.o.Z } $.6.} A 6.o.| 1 $.6.Z o f m 2 k.q.5 m T / +X#XqXG.p .           ",
"              o I R.#X[.:.A.b.+.J C.z ) '.^ u + - @ . + = % + @ - = + + = @ @ + - = o p ^ (.E.XX_.^ q [.qX:XqX$XR.I o           ",
"              O / R.R.U.E w.+.; D *.L.eX%XT I + > - t + . . . . . . . . . . + , % , + I ^ ,X:X-X@X( p W.OXOX.XR.R./ O           ",
"              O U.R.R.R.R.R./ u / U._.].R.F.T + ..Z ..t . . . . . . . . . . t t Z ..% T F.R.]._.U./ f F.R.R.R.R.R.U.O           ",
"              o Q {.R.R.R.U.r.S j R.R.R.R.R.T & @.#.6.S . . . . . . . . . . A | @.| # T R.R.R.R.~.r.i # U.R.R.R.`.~ o           ",
"            . f F.[.#X`.{.T.1Xw.# R.R.R.R.U.T & @.@.#.{ . . . . . . . . . . | 6.@.| # &.~.R.R.G.0.A.&X'.{.{.`.qX{.F.u .         ",
"            . L U.R.@XeXwX_ ;.< d W.).).U.m 0 . A #.o.@.. . . . . . . . . . @.t.4.A . Z. XP.).H.4 b.*.'._.wXeX$XR.R.L o         ",
"            O E R.R.^.Y.T v 2.s._ qXqXqX#X+XU.j Z { 4.@.. . . . . . . . . . #.O.7.C s H |.#XqXqXY !.Y k ;.B Y.^.R.G.L O         ",
"            0 u Y D.p J G ] e.z Q.qXqXqXqXqX{.j = #.z.7.@ . . . . . . . . % 7.o.6.= j @XqXqXqXqXqXwXP.v 2.s.L R.H.s ;.;         ",
"                . * >.rXyXv.= f ,X:X;XQ.Q.T.F.I $ o.l.6.@ . . . . . . . . = 6.$.@.* I F.T.Q.Q./.b J G ] e.r D.Y . v 2.s.@       ",
"              . <  .7 H <XB.1.p U.R.R.R.R.R.U.T q @.7.#.@ . . . . . . . . = $.6.{ u m U.R.R.R.p >.rXyXv.= w p J G ] e.@         ",
"            * 1X5X2.= q.v.n.d.# G.R.R.R.R.k q & n A 6.@.% . .       . . . = @.#.V q o s Y l B  .7 H <XB.1.: >.rXyXv.= .         ",
"            3 6Xm.3.6 < d.a.@.. w g D.~   O     . V | ..V . . .     . . . 1 S o.V .   . : 1X5X2.= q.v.8 2  .7 H <XB.1.          ",
"            F N.B.8.,.6 n.6.>                   . o > V V .             . + . x %       3 6Xm.3.6 < 8 1X5X2.= q.v.n.d..         ",
"            < h.M.M.B.B.v.6.A .                                                         F N.B.8.,.6 3 6Xm.3.6 < d.a.@..         ",
"              } d.g.j.h.9.X.%                                                           < h.M.M.B.B.F N.B.8.,.6 n.6.>           ",
"              . - C S x > .                                                             . } d.g.j.h.4 h.M.M.B.B.v.6.A .         ",
"                                                                                          . - C S x @ } d.g.j.h.9.X.%           ",
"                                                                                                      . - C S x > .             ",
"                                                                                                                                ",
"                                                                                                                                ",
"                                                                                                                                ",
"                                                                                                                                ",
"                                                                                                                                ",
"                                                                                                                                ",
"                                                                                                                                ",
"                                                                                                                                ",
"                                                                                                                                ",
"                                                                                                                                ",
"                                                                                                                                "
};
