/* XPM */
static char *a415133385754e3b840ab153d4747f4cR37duYXizERAKXSl[] = {
/* columns rows colors chars-per-pixel */
"64 64 71 1 ",
"  c 0x0FFFF",
". c #151B2E",
"X c #161B2E",
"o c #151C2D",
"O c #151D2D",
"+ c #161C2E",
"@ c #171C2E",
"# c #292733",
"$ c #2D2D33",
"% c #303630",
"& c #303631",
"* c #3B3338",
"= c #3C3338",
"- c #443E37",
"; c #443E38",
": c #4E3F3E",
"> c #4B5133",
", c #4B5134",
"< c #5B503C",
"1 c #5B503D",
"2 c #656C36",
"3 c #656C37",
"4 c #333848",
"5 c #614B43",
"6 c #745648",
"7 c #726041",
"8 c #897146",
"9 c #996E53",
"0 c #AC7A58",
"q c #B07F57",
"w c #808639",
"e c #99A03C",
"r c #B4BB3E",
"t c #B4BB3F",
"y c #A0834B",
"u c #B48557",
"i c #B38856",
"p c #B88A57",
"a c #BD8F56",
"s c #B79450",
"d c #BB9753",
"f c #C19455",
"g c #C3A650",
"h c #CEA554",
"j c #D1AE52",
"k c #D2AF52",
"l c #D5B850",
"z c #D7C04E",
"x c #D8C14E",
"c c #DBCA4C",
"v c #CFD641",
"b c #CFD642",
"n c #DAD249",
"m c #DFD44A",
"M c #E2DD48",
"N c #E1E146",
"B c #E5E646",
"V c #E9F044",
"C c #EEF372",
"Z c #8A8D96",
"A c #CBAC97",
"S c #D5BCAB",
"D c #F1F58A",
"F c #F1F68A",
"G c #F4F7A1",
"H c #F6F9B8",
"J c #C4C6CB",
"K c #F9FBD0",
"L c #E2E3E5",
"P c #FCFDE8",
"I c white",
/* pixels */
"                                                                ",
"                                                                ",
"                                                                ",
"                                                                ",
"                                                                ",
"                                                                ",
"                                                                ",
"                                                                ",
"                                                                ",
"                                                                ",
"                                                                ",
"                                                                ",
"                                                                ",
"                                 +++++                          ",
"                                 +++++++++                      ",
"                                 ++tt++++++++                   ",
"                                 ++,Vttttty+++                  ",
"                                  ++VVkVVkhss+X                 ",
"                                  ++&VhkVhhhh++                 ",
"                                   ++&hhkhhh$++                 ",
"                                   +++++hhh+++                  ",
"                                  ++II44+++++                   ",
"                                  ++IIII4&&++                   ",
"                                  ++LIIIIVV+++                  ",
"                              +++++++JJJJtt+++                  ",
"                            +++>>>>>>++++++++                   ",
"                          +++>>VCCVVV>>>-++++                   ",
"                         +++2VVDIIDDDDDVh+++                    ",
"                         ++2VVVIIIIIIIIVh1++                    ",
"                         ++VVVVIIIIIIIHVzh1++                   ",
"                        ++wVVVVIIISSIIVVVhh7++                  ",
"                      ++++VVVVVIIS00IIVVVhhh++                  ",
"                   ++++++wVVwwwZS00SIGVVVchh++                  ",
"                  ++++++6xx2++++:00ADVVVVVhh++                  ",
"                 ++++ee8fh1+++8++000VVVVVVhh++                  ",
"                 +++eVVhhh++++h8+000VVVVVVhh++                  ",
"                +++tVVVhhh+++yhMtn00dVVVVlhh++                  ",
"               +++tKKKVMMh+++;hVVVnnnVVVVhhh++                  ",
"              X++vVIIIVVVh++++$kVVVVVVVVkhhh++                  ",
"              ++vVPIIIVVVB+++++$&VVVVVVVhhhh++                  ",
"             X++VVIIIIViiVvv+++++&kkVVVkhhqq++                  ",
"             +++VVIIVVV00VVV++V+++hhhhhhh000++                  ",
"             ++hVVVVVVV00+++VVVh++hh00000000++                  ",
"             ++hhVVVVVVVi#+++vv+++kkhq000009+X                  ",
"             ++hhVVVVVVVV0##+++++&VVkhq0009++                   ",
"             ++hhVVVVVVVN000###++VVVVhh009+++                   ",
"             ++hhMVVVVVV00ddddd>>VVVVhh00**++                   ",
"             ++hhhVVVVVV00VVVVVVVVVVVhh0000++                   ",
"             ++hhhMVVVVV0dVVVVVVVVVVVhh0000*+                   ",
"             ++8hhhVVVVVgVVVVVVVVVVVVhh00000++                  ",
"              ++hhhmVVVVVVVVVVVVVVVVmhf00000++                  ",
"              ++8hhhmmVVVVVVVVVVVVVmhh000006++                  ",
"              X++hhhhhcccVVVVVVVVcchhh00000+++                  ",
"               ++7hhhhhhhcccccccchhhha00005++                   ",
"               X++7hhhhhhhhhhhhhhhhha00005++X                   ",
"                +++phhhhhhhhhhhhhhpp0000:+++                    ",
"                 ++:1pphhhhhhhhhpp0000::++++                    ",
"                   ++==uuuuhhhuu0000==++++                      ",
"                    +++==00uuu0000==++++                        ",
"                      +++=========++++                          ",
"                        ++++++++++                              ",
"                                                                ",
"                                                                ",
"                                                                "
};
