/* XPM */
static char *_92355c2b54c4f40f89d3fbcdf303f7eoyM39agl4TWYfVEc[] = {
/* columns rows colors chars-per-pixel */
"64 64 62 1 ",
"  c None",
". c #161B2E",
"X c #151C2D",
"o c #151D2D",
"O c #161C2E",
"+ c #171C2E",
"@ c #2D2D32",
"# c #2D2D33",
"$ c #303630",
"% c #303631",
"& c #3B3338",
"* c #3C3338",
"= c #443E37",
"- c #443E38",
"; c #4E3F3E",
": c #4B5133",
"> c #4B5134",
", c #5B503D",
"< c #656C36",
"1 c #333848",
"2 c #614B43",
"3 c #726041",
"4 c #AC7A58",
"5 c #99A03C",
"6 c #B4BB3E",
"7 c #B4BB3F",
"8 c #A0824A",
"9 c #B7944F",
"0 c #B48557",
"q c #B88A57",
"w c #BD8F56",
"e c #B79450",
"r c #BB9753",
"t c #B78A6D",
"y c #C19455",
"u c #C59A55",
"i c #CAB54E",
"p c #C3A650",
"a c #CEA554",
"s c #D1AE52",
"d c #D2AF52",
"f c #D4B750",
"g c #D5B850",
"h c #D2C34C",
"j c #D7C04E",
"k c #D8C14E",
"l c #DBCA4C",
"z c #CFD641",
"x c #CFD642",
"c c #D9D249",
"v c #DFD44A",
"b c #E2DD48",
"n c #E1E146",
"m c #E5E646",
"M c #E9F044",
"N c #EBF15B",
"B c #EBF25B",
"V c #C5C6CB",
"C c #F9FBD0",
"Z c #E2E3E5",
"A c #FCFDE8",
"S c white",
/* pixels */
"                                                                ",
"                                                                ",
"                                                                ",
"                                                                ",
"                                                                ",
"                                                                ",
"                                                                ",
"                                                                ",
"                                                                ",
"                                                                ",
"                                                                ",
"                                                                ",
"                                                                ",
"                                                                ",
"                                                                ",
"                                                                ",
"                                                                ",
"                                                                ",
"                                                                ",
"                                                                ",
"                                                                ",
"                                                                ",
"                                                                ",
"                                                                ",
"                                                                ",
"                                                                ",
"                                                                ",
"                                                                ",
"                                                                ",
"                                                                ",
"                                                                ",
"                                                                ",
"                         OOOOOOOOOO                             ",
"                       OOOOOOOOOOOOOOO           OOO            ",
"                      OOOO5555555555OOOO   OOO  OOOOO           ",
"                     OOO55MMMMMMMMMM55OOOOOOOOOOOO55OO          ",
"                     OO6MMMMMMMMMCCCCCVOOOOOVVOOO6MMOOO         ",
"                    OO6MMMM>>MMMCSSSSSSV6OOOSSVOOgMM6OO         ",
"                    OOsss$$OO$$MSSSSSSSSMzOO1SSOOassMzO.        ",
"                  ..Oeaa#OOOeeO$1SttttSSAMzOOSSZO#aaMMOO.       ",
"                ..OOOammOOOOaaeOOt4444SSNMMeO1SSOO#mMMeOO       ",
"           OOOOOOOOOaaMMMOOOaaMMMM44SSSSMMMMaOSMMOOMMaaaOO      ",
"         OOOOOOMMaaaaaMMMOOOOaaMMMM44MSMMMMMaOOMMMOaaaaaOO      ",
"        OO$NNNNNMssaaMMMMOO$OO9zMMMMMMMMMMMaa#OzzzOOO99aaO      ",
"      OOO$MSSSSSMMMsaMMMM$$M$OOOzmmMMMMMMMMaaaOOOOOOOOO9aO      ",
"     OOO$MNSSSSSMnnnsMzMMMMMM$OOOaamMMMMMMmaaa#OOO...OOO9O      ",
"     OO=MMSSSSCCM444ccO6M66MMM:OOaaabMMMMbaaaa8OOO   OOOOO      ",
"    OOOaMMCCCCMMMr4444OO6OOMbb6OOaaaabbbbaaaa8OOO     OOOO      ",
"    OO=abMMMMMMMMMrr44&OOOO688OOOfffaauaaaaau&&OO               ",
"    OOaaaMMMMMMMMMMM444OOOOOOOOO<MMMja4yyaay444OO               ",
"    OOaaaMMMMMMMMMhh444;OOOOOOO<MMMMMaq44yy4444OO               ",
"    OOaaavMMMMMMMM4444pp<<<<<<<MMMMMMaa44444444OO               ",
"    OO3aaallMMMMMMiiiiMMMMMMMMMMMMMMMaa44444444OO               ",
"     OOaaaaallMMMMMMMMMMMMMMMMMMMMMMlaa44444444OO               ",
"     OO3aaaaaalllMMMMMMMMMMMMMMMMMllaaw44444442OO               ",
"     OOO,aaaaaaaakkkkMMMMMMMMMMMkkaaaa4444444;OOO               ",
"      OOO,,aaaaaaaaaakkkkkkkkkkkaaaaqq44444;;OOO                ",
"        OOO-00aaaaaaaaaaaaaaaaaaa0004444***OOO                  ",
"          OO**-00aaaaaaaaaaaaaa0044444**OOOOO                   ",
"             OO**--------------*******OOOO                      ",
"                 OOOOOOOOOOOOOOOOOOOOO                          ",
"                                                                ",
"                                                                ",
"                                                                "
};
