/* XPM */
static char *d9c2eda743084608e19ce0540f203d723UQ2yqURQtoCJyfh[] = {
/* columns rows colors chars-per-pixel */
"64 64 203 2 ",
"   c green",
".  c #161C2E",
"X  c #191E2F",
"o  c #1A212F",
"O  c #1D2530",
"+  c #1F2A34",
"@  c #232C32",
"#  c #292F33",
"$  c #222731",
"%  c #253135",
"&  c #2B3333",
"*  c #2F3B36",
"=  c #273638",
"-  c #293738",
";  c #2C3A39",
":  c #303435",
">  c #333C35",
",  c #393D37",
"<  c #3A3D38",
"1  c #364236",
"2  c #394537",
"3  c #3D4937",
"4  c #34453D",
"5  c #3C4338",
"6  c #3E4B3B",
"7  c #3F513E",
"8  c #42453A",
"9  c #454A3A",
"0  c #494C3B",
"q  c #44533A",
"w  c #4A523B",
"e  c #46593E",
"r  c #4B5B3B",
"t  c #54563E",
"y  c #555A3E",
"u  c #53643D",
"i  c #5A6C3E",
"p  c #57693E",
"a  c #5E713F",
"s  c #374A40",
"d  c #3A4F41",
"f  c #3C5243",
"g  c #3D5348",
"h  c #415441",
"j  c #455B44",
"k  c #575F41",
"l  c #5C5E41",
"z  c #476046",
"x  c #4E6345",
"c  c #4A6449",
"v  c #4E6A4A",
"b  c #5F6F40",
"n  c #546843",
"m  c #5E7343",
"M  c #53724E",
"N  c #5A764A",
"B  c #567750",
"V  c #5C7C51",
"C  c #646643",
"Z  c #666C43",
"A  c #6C6C45",
"S  c #706F45",
"D  c #627641",
"F  c #657A42",
"G  c #697C42",
"H  c #65774B",
"J  c #737446",
"K  c #707C45",
"L  c #7C7C49",
"P  c #757849",
"I  c #5F8254",
"U  c #6C8243",
"Y  c #66834C",
"T  c #6A844C",
"R  c #718544",
"E  c #758C45",
"W  c #788D46",
"Q  c #718649",
"!  c #79874B",
"~  c #779046",
"^  c #7A9346",
"/  c #7E9449",
"(  c #7B974B",
")  c #648552",
"_  c #6A8356",
"`  c #668A54",
"'  c #6A8D53",
"]  c #668C59",
"[  c #6B935A",
"{  c #6F9B5E",
"}  c #6C9054",
"|  c #7A9C52",
" . c #729458",
".. c #759859",
"X. c #7DA255",
"o. c #76A15E",
"O. c #7EA75B",
"+. c #7FAB5F",
"@. c #688B67",
"#. c #6E9B6E",
"$. c #689269",
"%. c #719C63",
"&. c #749C6C",
"*. c #7C9D6B",
"=. c #799266",
"-. c #6B9572",
";. c #739970",
":. c #719771",
">. c #76A465",
",. c #7CA464",
"<. c #7CA962",
"1. c #73A169",
"2. c #83824B",
"3. c #89874C",
"4. c #818B49",
"5. c #8D8C4E",
"6. c #918E4F",
"7. c #83934A",
"8. c #89934B",
"9. c #839C49",
"0. c #8D9B4D",
"q. c #93924F",
"w. c #939C4E",
"e. c #899553",
"r. c #969651",
"t. c #989551",
"y. c #9E9C52",
"u. c #949F57",
"i. c #A19E53",
"p. c #86A34B",
"a. c #8AA449",
"s. c #8DA94C",
"d. c #92AD4C",
"f. c #95A44E",
"g. c #95B24D",
"h. c #9AB54E",
"j. c #9BB94E",
"k. c #84A654",
"l. c #86AA56",
"z. c #8BAC53",
"x. c #80A75E",
"c. c #83AD5D",
"v. c #8AAE5B",
"b. c #89A454",
"n. c #9DA151",
"m. c #9AAB54",
"M. c #92AE5D",
"N. c #9AAD5E",
"B. c #94A757",
"V. c #8DB256",
"C. c #87B05B",
"Z. c #8AB059",
"A. c #94B553",
"S. c #9AB653",
"D. c #97B851",
"F. c #9BB850",
"G. c #94B25A",
"H. c #9CB25C",
"J. c #A0B94F",
"K. c #A4A254",
"L. c #A8A656",
"P. c #A3AB53",
"I. c #ADAB56",
"U. c #A9AC5B",
"Y. c #B2AE58",
"T. c #A3B655",
"R. c #AAB555",
"E. c #A4B951",
"W. c #ABB954",
"Q. c #A4B45C",
"!. c #ACB65B",
"~. c #AEB858",
"^. c #B3B657",
"/. c #B3BA56",
"(. c #B0BA56",
"). c #B3BA56",
"_. c #B3B65D",
"`. c #BAB75C",
"'. c #B6BA58",
"]. c #B5B959",
"[. c #B9BA59",
"{. c #BFBA5B",
"}. c #BCBA5A",
"|. c #819E6C",
" X c #83A563",
".X c #8BA566",
"XX c #83AB61",
"oX c #8BAC61",
"OX c #84A169",
"+X c #8BA369",
"@X c #95A767",
"#X c #93AD61",
"$X c #9BAA64",
"%X c #91A569",
"&X c #98A765",
"*X c #97B060",
"=X c #A4AE63",
"-X c #A8AF62",
";X c #A5B160",
":X c #ACB161",
">X c #B1B360",
",X c #C0BB5B",
"<X c #C1BB5B",
/* pixels */
"    $ &           - 4 X       # $     X 0 > $ 2 X .       @ +     > 9 ; = > 9 O + & y 0   o :   @ 2       > t &       O &       ",
"    i a.6 1 > @ 1 v { 4 S t , t.A % M j L.L a 9.9 J w D q ) j @ # 6.I. ._ q.i.6 V P [.P.5 8 K.L w s.q j ; L ^.0 & $ O D ^ >     ",
"  . q g.9.s.9.r d.f.B.6.,X2.5.}.J 6  .u.Y.I.g.9.7.W.b.D.d.A.H q.5.3.,X!._.,X3.! _.I.W.E.s.K P.W./ g.p.v.r.r.y.2.I.A j D.g.9     ",
"O c j ) A.j.h.9.h.E.W.'.[.T.'.W.T.w.w.,X}.,XW.R.E.j.F.F.j.j.S.W.)._.W./.).W.R.W.}.,X}.).W.W.E.j.J.j.j.E.E.W._./.f.k [ l.a q @   ",
"% [ O.A.D.D.D.F.j.j.j.j.E.j.E.j.j.j.E./.W.W././.W.S.H.D.D.j.j.j.j.E.j.E.j.j.j.j././.W././.W.H.G.S.D.F.j.j.j.E.J.s.| +.l.a.g.q   ",
"  4 j X.Z.c.<.<.G.W.[.W.S.A.V.Z.F.j.F.j.j.j.j.A.c.<.<.<.<.v.T.[./.E.A.A.Z.D.j.j.F.j.j.j.D.v.+.<.<.<.c.H./.'.E.A.A.c.c.h.~ r @   ",
"  i 9.s.F.V.c.Z.v.H.W.Q.G.Z.V.Z.A.D.c.c.Z.V.A.Z.Z.D.A.c.Z.c.G.W.Q.G.Z.V.V.Z.j.c.c.V.Z.A.Z.c.D.D.c.Z.v.V.Q.W.H.V.Z.A.c.A.g.2     ",
"  q U W p.E d.T..X Xc. Xc.c.c.<.c.c.c.V.c.V.D.D.v.v.v.A.E.M.,.c. Xc.c.c.+.c.Z.c.V.c.Z.D.j.v.v.z.v.E.H. Xc. XXXc.c.c.<.<.c.z     ",
"  , C C Z 2.n.{._.+X+X-X&X#Xv.Z.Z.<.Z.A.D.D.M.#X$X%X@X$X}._.$X*.-X$X$Xv.Z.V.<.c.A.A.D.A.v.$X$X%X&X_.`.:X*.$X$X$XoXZ.V.c.<.e.A @ ",
"0 y.n.H.N._.Q.#XoXQ.Q.E././.W.j.D.v.G.Q.Q.Q.Q./.Q.H._.!.H.XXH.H.E.W.)./.E.j.Z.M.Q.Q.Q.H.~.~.H.!.!.Q.oX#XH.T.W.)./.E.j.A.oXU.6.# ",
"@ 9 ~ D.A.v.<.<.<.<.<.c.V.v.G.j.j.S.J.J.E.W.E.j.D.A.V.c.<.<.<.<.c.Z.Z.Z.D.j.F.j.J.E.W.E.j.F.A.V.c.<.<.<.<.+.Z.Z.v.A.j.D.G.T &   ",
"  > 4.F.A.V.c.V.A.+.c.G.H.Q._.E.j.j.j.E./.'.).W.j.A.V.Z.Z.D.c.+.Z.H.H._.T.j.j.j.j.W.'.)./.E.D.A.Z.c.A.V.<.c.G.H.!.~.j.j.j.h.F   ",
"q 7.m.D.j.j.j.j.j.D.D.H.!.H.H.~.T.T.A.D.S.j.E.E.j.j.j.j.j.j.F.D.H.Q.Q.*XR.W.T.S.A.D.S.j.E.E.j.j.j.j.j.j.D.A.Q.Q.H.Q.~.T.H.F.p.& ",
"& e X.c.A.j.j.j.j.A.Z.V.A.c.<.XXXXXX<.<.+.v.Z.A.j.j.j.j.j.j.D.V.Z.A.Z.<.XXXXXX<.<.<.c.Z.V.D.j.j.j.j.j.j.A.Z.A.V.c.<.oXXX<.) q X ",
"& ^ j.j.D.v. X Xv. XXXD.W.W.v.A.A.V.Z.V.A.D.F.j.j.j.A.XX,.v. X XA.E./.G.Z.D.V.V.V.A.D.D.j.j.j.D.v. Xc.v. Xv.j.W.T.c.D.V.Z.m o   ",
"O p i T ,.|.:X$XOX:X:XQ.}.,X_.S.j.W./.).[.S.V. X,. X&.=X-XOX$X>XQ.'.,X[.T.j.E.W.).[.W.D.XX,. X*.%X:X+X+X>X:XR.,X}.R.j.j.W.w.5 & ",
"X 3 4.r.U.-X`.`.`.}.).[.`.!.}.).E.E.W.W.H. XOX-X%X$X-X_.}._.}.).).}.!.`.}.W.E.W.W.T.XXOX$X$X%X:X-X}.`.{.[.).}._._.}.W.E.E.0.5.8 ",
"& 9.E.}.W.Q.H.XXG.W.j.G.oXXX~./.E.j.E./.!._._.W.[.).Q.Q.oXv.T.j.A.M.<.H.).W.j.E.W._.:X_.W.).[.T.Q.#XXXT.E.D.G.XXv./.W.E.E.R.C o ",
"X u A.T.Z.<.<.>.+.Z.c.<.Z.c.Z.F.j.E.W.E.W.W.j.j.T.G.<.<.<.<.c.Z.<.c.c.c.D.j.J.W.E.W./.E.j.S.H.c.<.<.<.c.Z.+.<.Z.c.V.j.j.m.m.9.3 ",
"O D D.Z.c.A.V.Z.v.<.c.Z.D.j.D.D.j.D.c.D.j.j.j.D.V.c.V.A.Z.V.c.c.Z.A.j.D.D.j.F.Z.V.j.j.j.F.A.c.c.D.Z.V.c.<.Z.Z.j.F.D.D.j.T j 9.6 ",
"D g.E.W.W.W.D.F.D.V.D.F.D.j.D.c.c.<.<.c.D.D.E.'.W.W.W.S.F.D.V.V.j.D.j.F.c.+.c.<.c.A.D.S././.W.~.T.D.F.A.V.D.D.F.j.V.<.c.[ 4 7 $ ",
"r W T.}.~.G.c.c.<.<.<.c.<.<.,.<.<.<.>.<.c.A.W.[.}./.H.v.c.<.<.<.c.<.<.,.<.<.<.>.,.c.Z.E.'.}.[.Q.Z.c.+.<.<.+.c.<.<.,.<.<.{  .A.F ",
"X w L./.F.F.Z.+.<.<.<.&.&.:.-.*. X X|.&.A.W.'.}.[.S.j.A.c.<.<.<.>.#.&.-.&. X XOX&.v.E./.[.}.E.D.D.c.<.<.<.>.#.&.-.-.,.T x x s.i ",
"& L.,X).W.j.j.A.Z.XX,.&.-X_.+X:X:X_.`.=X~.E.E.W.'.W.E.j.D.V.XX,.&.@X_.$X$X_.:X{.-X!.W.E.W.[.W.E.j.D.A.c.XX*.OX:X-X%X_.t.i.t > @ ",
"O A 8.E.E.j.j.j.E.T.R._.}.).[.[.[.[.[.,X}.[.E.E.W.E.J.j.j.j.T.R.!.}.).[.[.'.}.'.,X}.[.W.E.W.E.E.j.j.j.E.T.!.`.[.'.[.'.}.^.J A < ",
"> G m f.E.E.S.j.j.j.j.E.W.j.W.E.j.S.E.[.'.[.).[.W.E.T.E.j.j.j.j.E.W.j.E.E.j.E.E.[.[.'.'.'.).E.T.E.j.j.j.j.j.W.E.E.W.j.E.h.h.[.t ",
"3 ^ 9.Z.<.<.c.c.D.E./.E.S.F.D.A.j.j.j.j.j.j.J.S.V.c.<.c.c.A.E.W.W.S.D.D.A.j.j.j.j.j.j.J.S.A.c.<.c.c.Z.S.W.W.E.F.F.A.D.j.h.~ Z @ ",
"X % ^ D.V.c.<.c.v.Q.[.R.G.c.Z.v.A.j.Z.V.D.D.D.c.c.V.Z.<.c.c.H.'./.H.v.Z.Z.Z.j.V.Z.D.A.D.Z.c.Z.V.+.c.c.G.~.'.Q.V.c.Z.v.A.A.' %   ",
"@ g Q XXA.A.D.D.c.v.G.v.Z.Z.V.c.Z.V.<.c.+.c.A.D.A.D.D.A.S.v.c.G.v.Z.C.V.v.c.A.<.c.c.c.A.D.A.D.D.V.F.G.c.A.v.v.c.V.Z.c.Z.c.[ ;   ",
"s %.@.@.v.OXQ.[.-X&.*.@X XXXXXc.c.<.V.D.D.D.D.v..XOXOX#X'.!.+X&.%X XoX<.c.c.<.c.D.A.D.D.v..XOX X.X~._.@X&.+X.XXXXXc.c.c.<.| W > ",
"@ h h e.:X_._.Q.H.;XQ.W._._.T.j.D.XXv.G.H.H.$X!._.;X_._.!.H.!.$XW._.'.R.S.j.c.oXG.H.Q.N.;X_.Q._._._.H.Q.$XR.W.'.~.E.j.V.XXM.W > ",
"@ E E b.V.G.XX<.<.XXv.V.D.G.H.j.D.S.E.E.E.E.E.E.A.V.G.oX<.<.<.c.Z.D.A.H.D.j.D.T.E.E.E.E.E.H.V.G.v.XX<.<.oXZ.A.S.H.S.j.D.H.T.7.# ",
"@ ~ j.j.j.V.c.c.Z.<.<.c.Z.G.Q.F.j.j.j.E.W.'./.E.j.D.V.c.c.V.<.<.c.v.Z.Q.S.j.j.j.j.E.).).W.j.D.A.c.c.Z.c.<.<.c.v.H.H.j.j.d.E E @ ",
"> W h.j.j.j.D.j.j.A.D.T.~.~.!.W.E.j.F.S.W.E.W./.S.D.D.D.F.j.A.A.H.~.~.!./.W.E.S.F.E.W.E./.E.F.D.D.D.j.D.A.S.R.~.!._.W.E.9.7 h @ ",
"> W 9.Z.v.V.V.j.j.D.Z.v.G.XX<.#X#Xv.XXc.c.V.A.D.j.j.j.j.j.j.j.A.v.G.v.<.oX#Xv.oX+.c.Z.V.A.F.j.j.j.j.j.j.D.v.G.V.<.XX#XoX| [ z.q ",
"  > 9.F.A.A.v.v.D.c.v.j.E.H.c.Z.Z.c.c.c.Z.V.A.j.j.j.j.v.v.D.v.c.A.j.E.V.c.V.c.c.c.c.V.A.D.j.j.j.A.v.A.A.c.V.j.E.A.c.V.c.c.` q @ ",
"  & U 9.U _ &XOX*.@X$XH.'.}.Q.D.j.S.T.W./.E.D.v.v.v.,.@X+X*.+X$XM.W.}.~.A.j.S.E.W./.W.j.v.v.V. X+X@X*.OX$X&XT.}.[.H.j.j.S.7.# X ",
"@ A J 5 A 6.}.`.>X}.}.[.}.`.}.W.E.W././.R.oX,.%X*.+X%X:X,X>X`.}.`.}.[.}.).E.W././.W.M. X+X+X*.%X$X,X_._.}.[.[.}.{.[.E.E.W.w.r.9 ",
"t [.'.I.'.'.!.#XQ./.E.T.H.oX'.[.W.j.j.W.H.$X:X/._.'./._.H.H./.E.E.Q.oX!.}./.S.j.E.R.$X:X~.'._./._.Q.#X~.W.S.Q.#XH.}.'.E.j.h.! > ",
"> W h./.A.<.<.>.c.A.V.<.c.+.G.S.j.E.W.W.'.).E.j.W.T.c.<.<.<.A.A.c.<.+.v.S.j.j.W.W./.[.W.j.E.W.Z.<.<.<.Z.D.c.<.c.c.S.j.j.W.8.i o ",
"@ D V.Z.<.Z.c.c.c.<.c.c.D.D.A.D.j.S.A.j.j.j.j.D.V.c.c.Z.c.c.<.<.c.V.D.A.D.j.j.A.D.j.j.j.D.V.c.+.V.c.c.<.<.c.c.j.A.A.j.j.D.A.p.& ",
"G j.j.S.H.E.F.j.D.V.D.D.D.j.j.Z.Z.c.<.V.j.j.S.W.E.S.T.S.D.j.V.A.F.D.j.j.V.Z.Z.<.c.F.j.j.W.T.S.T.E.D.j.A.V.D.D.j.j.D.c.V.c.{ e @ ",
"F s.9.P.`.H.V.Z.c.<.c.Z.c.V.c.<.<.<.<.<.c.A.W.}.}.[.Q.V.Z.c.c.c.Z.c.Z.v.<.<.<.<.<.c.Z.T.[.}.[._.G.V.c.c.<.v.Z.Z.V.<.>.<.C.z.X.N ",
"$ * > n.S.A.Z.<.,.<.<.>.1.-.-.,.XX<.&.>.A.E./.}.}.E.A.V.c.<.<.<.>.1.#.-.1.<.c.&.&.c.S.W.[.}.W.D.A.c.<.>.<.<.1.&.-.$.c j V Y d.F ",
"4 [ c Q D.j.D.Z.c.<.>.:.+X$X&.@X$X=X:X+XQ.W.W.'.'.E.j.F.V.c.<.,.#.|.$X|.OX$X$X>X%XN.W.W./.}.W.E.j.A.c.<.<.1.;.$X%X=.q.3.A A 3 $ ",
"4 ] k.k.Z.D.j.j.S.H.$X=X}.}._.}.}.}.}.}.[.W.S.E.W.W.E.j.j.j.H.H.$X`.}._.`.}.}.}.,X}./.E.j.W.W.E.j.j.j.H.H.$X:X}.[._.}.,X}._.t X ",
"o n ^.W.E.E.j.j.j.j.E.W./.E./.E.E.E.W.}.}.}./.).W.E.E.E.j.j.J.E.W.).E.W.W.E.W.E.}.}.}.'././.E.E.E.j.j.J.j.E./.W.E./.E.W.E.E.y.& ",
"2 W 0.A.v.v.A.A.j.j.E.j.j.j.S.F.j.j.J.W.E.E.W.W.H.V.v.A.A.D.j.E.E.j.j.j.D.j.j.j.E.E.E.W.W.E.G.v.V.A.A.j.E.E.j.j.j.F.j.j.j.s.9 X ",
"& 1 ] c.c.<.<.<.Z.~.}.~.H.Z.Z.c.D.j.A.D.j.j.D.Z.+.c.c.<.<.c.Q.[.'.Q.Z.Z.c.V.j.D.A.j.j.j.A.c.c.c.<.<.<.H.'.[.R.G.Z.Z.Z.j.j.s.i O ",
"  O m s.j.A.V.A.v.G.T.G.V.Z.A.Z.V.A.<.c.c.Z.A.V.A.j.D.V.D.v.v.T.H.A.Z.V.V.Z.D.c.<.c.c.A.A.V.D.j.V.A.V.v.S.H.A.V.V.A.c.D.Z.Z.~ & ",
"X t A y Q XXH.~.&X*.,. X<.XX+.<.c.<.Z.D.V.D.D.A.XX XXXv.W.=X*.,.OX,.XXc.<.+.c.c.D.V.A.D.D.XX XXXXXT.!.OX*.OX X<.c.<.<.c.<.z.e % ",
": K.[.I.L._.`._.!.$X$X_.:XQ.G.D.A.<.c.V.A.S.#X$X:X=X:X:X`.!.:X+X_.!.!.H.A.D.c.c.V.G.S.M.$X:X-X-X:X`.!.!.%XQ.!.!.H.A.D.Z.<.O.` s ",
"  G j.G.G.Q.#XXX<.#XG.D.E.W.T.j.D.G.H.R.W.T.T.W.H.Z.Q.G.oX<.oXG.D.E.T.R.S.j.A.H.R.R.W.T.W.Q.Z.H.H.#X<.XXM.A.S.E.R.E.j.A.V.Y -   ",
"  & W j.A.Z.+.<.c.>.<.+.c.v.G.F.j.j.j.j.E./.W.j.j.D.V.c.<.c.<.<.<.c.c.M.A.j.j.j.j.E.W.W.E.j.D.V.c.<.c.<.>.<.c.c.v.G.j.j.j.~ 3 @ ",
"@ 5.T.F.D.A.V.D.D.c.V.H.R./.`.W.j.j.j.E./.W././.S.D.A.V.A.j.V.Z.A.R.R.`.W.J.j.j.j.W./.W.).E.D.A.A.A.j.A.c.A.Q.R.'.'.E.j.j.9.9.3 ",
"$ b 9.A.A.F.j.j.j.j.A.G.H.oXoXQ.H.H.V.Z.A.D.D.S.j.j.j.j.j.j.j.D.Z.H.M.XXH.Q.H.G.Z.V.D.D.D.S.j.j.j.j.j.j.D.V.H.G.XX#XQ.H.H.T >   ",
"  X H G.V.D.D.D.j.V.Z.D.D.A.+.c.c.<.<.<.c.Z.Z.D.j.j.j.D.D.j.D.v.A.j.A.c.<.c.<.<.<.<.c.Z.A.j.j.j.D.D.j.D.V.V.D.D.Z.<.c.<.c.p.q   ",
"  l ^.}.Q.XX+X*. XOX.XG./.[.G.D.j.D.A.H.T.J.j.D.D.D.v..X*. XOX.XM.W.[.Q.A.j.D.D.S.T.E.j.D.D.D.z. XOX,. X+XoXS.'.~.G.j.c.X.9.i   ",
": K.Y.[.'.R.{.:X$X`.`._.}.,X[.E.j.W.).[./.G.c.OX&.*.*.:X`.$X:X{._.[.,X}.W.j.W.).[.[.H.v.OX*.*.|.@X{.-X=X{._._.,X,X/.V.,.%.M %   ",
"@ C 0 9.S.E./.W.[.[.W./.!.H.}.[.W.E.E.E.H..X@X_.-X!._._.!.!.[.W.W.`.H._.}./.E.S.E.T..X@X-X_.:X`._._.!.[./.W.'.Q.!.`.XX#.1.>.s   ",
"  X q s.z.j.s.Z.G.D.A.c.XX<.H.W.E.j.W./._.[./.E./.P.V.oX<.XXA.F.Z.x.<.G.W.E.E.W.R.'._.).E.0.n.z.v.XXo.G.S.V.c.O. .G.c.,.%.g @   ",
"  & 9.j.F ( e ] V } ` ' A.X.k.~ j.d.K s.E.E.d.h.R Y C.+.<.<.V Y I m V.X.A.s.W.q.9.E.E.d.| [ 6 M c.V B <.` o...z.e E ~ ~ F.i     ",
"    r G > %   ; f >.M > u q s.q F p.1 1 s.j.F R q 9.~ ) ' p.T @ O u ~ q D q J 9 9.W d.a.j M % x ^ > f c 4 z.m 2 $ @ $ i a.r     ",
"                @ d -       2 @   & o   u F & @ o 3 * - ; 3 >     $ @       . X 2 % F r X     O @       X 3 >           &       "
};
