/* XPM */
static char *_62d188f0f7e49faf2e8e1bf3eddeb8cps4EHOrbWHqzdJVh[] = {
/* columns rows colors chars-per-pixel */
"64 64 46 1 ",
"  c 0x0FFFF",
". c #161B2E",
"X c #151C2D",
"o c #151D2D",
"O c #161C2E",
"+ c #1B2237",
"@ c #262735",
"# c #2E2F38",
"$ c #36333D",
"% c #31353E",
"& c #463F45",
"* c #3F5579",
"= c #464243",
"- c #4C4D4D",
"; c #5E554E",
": c #665754",
"> c #67655C",
", c #76635B",
"< c #505562",
"1 c #404E75",
"2 c #6D717C",
"3 c #866F63",
"4 c #8D7B63",
"5 c #977B6B",
"6 c #9E826E",
"7 c #A58E6D",
"8 c #AE9074",
"9 c #BD9F7A",
"0 c #BDA178",
"q c #C5A67D",
"w c #3E7F93",
"e c #3E8698",
"r c #CDAD80",
"t c #D5B583",
"y c #D8BA88",
"u c #DBC08D",
"i c #DEC692",
"p c #D3C89B",
"a c #E8D6A1",
"s c #EBDCA6",
"d c #EFE1AB",
"f c #F3E9C0",
"g c #F5ECCA",
"h c #F9F4DF",
"j c #FBF7EA",
"k c white",
/* pixels */
"                                                                ",
"                                                                ",
"                                                                ",
"        OOOO                                     OOOO           ",
"       OOOOOOO                                 OOOOOOO          ",
"      OOO&&&OOO         OOOOOOOOOOOOOO        OOO;;&&OO         ",
"     OOO&558;OOO      OOOOO;>>>>>>>>>OOO     OOO;tt85&OO        ",
"     OO&558tt;OO    OOOOO22iddddddddd>>OOO   OO;tttt55OO        ",
"     OO555ttttOOO  OOO;>2khdddddddddddd>OOO  OOttttt55OO        ",
"     OO555ttttOOOOOOO>igkhdddddddddddddd>>OO OO4ttt955OO        ",
"     OO:559tt4OOOOO;>dgkkddddddddddddddddd>OOOOO49955:OO        ",
"     OOO,55q7OOOOOOtdfkkkdddddddddddddddddfOOOOOO,,,,OO         ",
"      OOO,,,OOOOOO=tdkkkkffdddddddddddddddk<OOOOOOOOOOO         ",
"       OOOOOOOOOO=tudkkjkkkdffdddfdddddfddkk<OO OOOOOO          ",
"         OOOO OOOttddkkdkkjdkkdddkfddddkddkkkO=O OOOO           ",
"         OOOO OOOttddkkdkkddkkddfkkdddfkddjjk-tOOOOO            ",
"         OOO OOO=ttddjkdjjddjkddkkkdddkkddddjdtOO OO            ",
"          OO OOOtttdddjddddddjddjjjdddkjdddddduOOOOO            ",
"          OOOO$OtttdddddadddddddddddddjddddddddOOOOO            ",
"          OOOO5Otttdddddtdddddddddddddddddddddd=OOO             ",
"           OOO5$tttdddddtddddddddddddddddadddddtOOO             ",
"           OOO55tttdadddtdddddddddaddddddtddddduOOO             ",
"          OOOO55tttstdddydddddddddtddddddtdddddd%OO             ",
"          OOOO55tttttdddddddddddddtddddddtdddddddOOO            ",
"          OOO@55tttttdddsdddddddddtddddddydddddds#OO            ",
"         OOOO555rttttsddtdddddddddtddddddsdddsddttOO            ",
"         OOO#6555rtrttsstddddddddstsdddddtdddtdsttOOOO          ",
"   OOOOOOOO#tt6555t5tttttdsddddddtttsdddstsddtsttr@OOO          ",
"   OO%%%%%%yttt555r5tttttstsssdddttttssstttssttrt55#OOO         ",
"   OOdddddddttt65555rtttttttttssstttttttttttttt5r56t#%%%OOOOO   ",
"   OOpddddddyttt66655rrtttttttttttttrtt0ttttttr556tttddd%%%OO   ",
"   .OOpddddsstttttt6666ttttrtrtttttt5rrO0rrrtt666ttttsdddddOO   ",
"    OOOsssst000yttttttttttr5t5ttrrrr553OO555tttttt00ttssddpO.   ",
"    OOOtttttOOOdtttttttttt55t5tt555555OOO555ttttttOOttttddOO    ",
"     OOOOttOOOddtttttttttt55ttttttt555OOOOtttttddttOOOOOOOOO    ",
"      OOOOOOOdddttOddttttt5ttttttttttOOOOOOtttddddttOOOOOOO     ",
"        OOdddddttOOdddddtttttttttttttOOOOOOOtdddddddtttOOOO     ",
"         OOdddtOOOddddddtttttdddddddOOOOOOOOOdddddddddOOOO      ",
"         OOOOOOOOdddddOOtttddddddddOOOO11OOOOOOOOOOOOOOOO       ",
"          OOOOOOOOOOOOOdddddddddOOOOOO111111OOOOOOOOOOO         ",
"             OOOOOOOOOOOOdddddOOOOOOO11111111OOOOOOOOO          ",
"             OOOOOOOOOOOOOOOOOOOOOOO1111ee11111OOOOO            ",
"             OOOOOOOO11OOOOOOOOOOO11111eeee1111OOOOO            ",
"             OOOOOOO1111OOOOOOOO111111eeeeeee111OOOO            ",
"              OOOOOO11111111111111111eeeeeeeee11OOO             ",
"              OOOOOO1111ww111wwwwwwwweeeeeeee*1+OOO             ",
"               OOOOO+11wee1wweeeeeeeeeeeeeee*1+OOO              ",
"                OOOOO+1***1*****************1+OOO               ",
"                 OOOOO++++11111111111111111++OOOO               ",
"                  OOOOOOOO+++++++++++++++++OOOOO                ",
"                   OOOOOOOOOOOOOOOOOOOOOOOOOOOO                 ",
"                    OOOOOO             OOOOOO                   ",
"                      OOOOO             OOOO                    ",
"                       OOOO            OOOO                     ",
"                       OOO             OOO                      ",
"                      OOOO             OOOO                     ",
"                                                                ",
"                                                                ",
"                                                                ",
"                                                                ",
"                                                                ",
"                                                                ",
"                                                                ",
"                                                                "
};
