/* XPM */
static char *facb468cdaa84d25d231d9937a3648e1nqdqaKgPsmt5yNkD[] = {
/* columns rows colors chars-per-pixel */
"64 64 9 1 ",
"  c 0x0FFFF",
". c #161C2E",
"X c #387253",
"o c #774352",
"O c #A55A50",
"+ c #529650",
"@ c #7CBB4E",
"# c #CC804B",
"$ c #E0BD60",
/* pixels */
"                                                                ",
"                                                                ",
"                                                                ",
"                                                                ",
"                                                                ",
"                                                                ",
"                                                                ",
"                                                                ",
"                                                                ",
"                                                                ",
"                                                                ",
"                                                                ",
"                                      ...                       ",
"                                     .....                      ",
"                                    ...@@..                     ",
"                                   ...@@@@.                     ",
"                               .......@@@@.                     ",
"                             ........++@@.                      ",
"                            ...###..X+++...                     ",
"                           ...O###O.X++.....                    ",
"                           ...O##O..X++......                   ",
"                          ...OOOOO..XX...OO...                  ",
"                          ...O...##.XX..OOOO..                  ",
"                         ...O..####OOOOOO###...                 ",
"                        ....O.o###OOOO#..#$$#..                 ",
"                       ...##O.#$$OOO####..###..                 ",
"                     ....###oo$$$OO#$$$$oo.##..                 ",
"                    ....###Ooo###OO##$$$#oo##..                 ",
"              .... ...OO#OOOoO#$$O#$$$$##oo##..                 ",
"             ..... ..OOOOOoooO##########oo##...                 ",
"            ...+X....OOOOoooOO##O###$$##oO##..                  ",
"            ..++....OOOOooooO###O######ooOO...                  ",
"            ..+X....OOOooooO###OO#####OooO.....                 ",
"            ..+XXXX.OOOo.OOO###OO#####Ooo.##O....               ",
"             ..XXX...OO..OOO###o######Ooo.##O.....              ",
"             ...........OOOOOOoo#####OOOo.#OOO..X..             ",
"                ........OOOOOOooOOOOOOOOo..OOO..X..             ",
"               ...@@@...OOOOOOooOOOOOOOOo..OOO.XX..             ",
"               ..@@@@@..OOOOOOo.OOOOOOOOo..OOO.XX.              ",
"               ..@@..@..OOOOOOo.OOOOOO.....OO..X..              ",
"               ..@@......OOOOO..OOOO.......OO....               ",
"               ..@@@+++..OOOOO..OOO.............                ",
"                ...++++++.OOOO...OO..XXXX.....                  ",
"                 ............O.....XXXXXXX.....                 ",
"                  ..........    ...XXX...++.....                ",
"                                    .....X++++..                ",
"                                    ..  ........                ",
"                                          .....                 ",
"                                                                ",
"                                                                ",
"                                                                ",
"                                                                ",
"                                                                ",
"                                                                ",
"                                                                ",
"                                                                ",
"                                                                ",
"                                                                ",
"                                                                ",
"                                                                ",
"                                                                ",
"                                                                ",
"                                                                ",
"                                                                "
};
