/* XPM */
static char *_8840887a8ff413b8f97a423be4d1199kJQ25W9kYAq18Dev[] = {
/* columns rows colors chars-per-pixel */
"64 64 6 1 ",
"  c 0x0FFFF",
". c #161C2E",
"X c #977B6B",
"o c #E3C18C",
"O c #EFE1AB",
"+ c white",
/* pixels */
"                                                                ",
"                                                                ",
"                                                                ",
"                                                                ",
"                                                                ",
"                                                                ",
"                         .....    ....                          ",
"                       .................                        ",
"                   .......++................                    ",
"                .........+++++....+++.........                  ",
"               .........+++++++O++++++........                  ",
"               ...O+++OO++++++++++++++Oo+++....                 ",
"              ...O+++++O++++++oo++++++oo++++...                 ",
"              ..OO+++++++++++oo++++++ooo+++++...                ",
"            ....oO+++++++OOOooo+++++OooO++++O... .....          ",
"            ....ooO+++++OoOoO++OO+OOOOOO++++OO.........         ",
"           ....++ooOO+++Oooo+++++OOO++++O++Oooo........         ",
"           ..+++++oo++++++oo+++++OOO+++++OOOooo........         ",
"          ...++++++o++++++oo+++++OO++++++OOOOoo......           ",
"          ...++++++o++++++OoO++OOOO+++++...oo........           ",
"          ...+++++OO+++++OOOOOOOOOOO+++....O.........           ",
"          ...O+++OOOO++O++++OO+++OOoOOO...OO.......++.          ",
"           ...OOO+++OOO++++++++++++oooo..OOO.......+..          ",
"           ....OO++++OO++++++++++++oooo..O++...+++.++..         ",
"           ....oO++++oo+++++o++++++oOOOO++++...+.+.....         ",
"           ....oOOOOOoo++++oo+++OooOOOO+++++...........         ",
"            ...oOOooooOOOOOOOOOOOOOOOOO+++++...........         ",
"            ..OooOOOOOO++++OOOOO++++OOO+++OOO..........         ",
"           ...ooooOO+OO+++++OOO+++++++OOooooo..........         ",
"           ...oXoooO+++++++++oO++++++OOoooXXXXX.......          ",
"           ....XoooXoooOOOOOooooOOOOOooooooXXX.......           ",
"            ....XXXXooooOOOOooooooOOoooooooXXX..                ",
"             .....XXoooooXXXoooooooooXXooooX....                ",
"               ....XXXooXXXoooXXXoooXXXXXX.....                 ",
"               .....XX..XX.....XXXXXXX.........                 ",
"                ..............................                  ",
"                 ............................                   ",
"                   .......           ......                     ",
"                    ...                ...                      ",
"                                                                ",
"                                                                ",
"                                                                ",
"                                                                ",
"                                                                ",
"                                                                ",
"                                                                ",
"                                                                ",
"                                                                ",
"                                                                ",
"                                                                ",
"                                                                ",
"                                                                ",
"                                                                ",
"                                                                ",
"                                                                ",
"                                                                ",
"                                                                ",
"                                                                ",
"                                                                ",
"                                                                ",
"                                                                ",
"                                                                ",
"                                                                ",
"                                                                "
};
