/* XPM */
static char *_b2709e9f93241e7dc6d63dc683841c3TheRrDyOZeeWcGE9[] = {
/* columns rows colors chars-per-pixel */
"64 64 6 1 ",
"  c 0x0FFFF",
". c #161C2E",
"X c #977B6B",
"o c #E3C18C",
"O c #EFE1AB",
"+ c white",
/* pixels */
"                                                                ",
"                                                                ",
"                                                                ",
"                                                                ",
"                                                                ",
"                                                                ",
"                                                                ",
"                                                                ",
"                                                                ",
"                                                                ",
"                                                                ",
"                                                                ",
"                                                                ",
"                                                                ",
"                                                                ",
"                                                                ",
"                                                                ",
"                                                                ",
"                                                                ",
"                          .....    ....                         ",
"                        .................                       ",
"                    .......++................                   ",
"                 .........+++++....+++.........                 ",
"                .........+++++++O++++++........                 ",
"                ...O+++OO++++++++++++++Oo+++....                ",
"               ...O+++++O++++++oo++++++oo++++...                ",
"               ..OO+++++++++++oo++++++ooo+++++...               ",
"             ....oO+++++++OOOooo+++++OooO++++O...               ",
"             ....ooO+++++OoOoO++OO+OOOOOO++++OO......           ",
"            ....++ooOO+++Oooo+++++OOO++++O++Oooo......          ",
"            ..+++++oo++++++oo+++++OOO+++++OOOooo......          ",
"           ...++++++o++++++oo+++++OO++++++OOOOo.......          ",
"           ...++++++o++++++OoO++OOOO+++++OOoooX.....            ",
"           ...+++++OO+++++OOOOOOOOOOO++...OO........            ",
"           ...O+++OOOO++O++++OO+++OOoO....O.........            ",
"            ...OOO+++OOO++++++++++++oo...OO.......++.           ",
"            ....OO++++OO++++++++++++oo..OOO.......+..           ",
"            ....oO++++oo+++++o++++++oO..O++...+++.++..          ",
"            ....oOOOOOoo++++oo+++OooOOOO+++...+.+.....          ",
"             ...oOOooooOOOOOOOOOOOOOOOOO+++...........          ",
"             ..OooOOOOOO++++OOOOO++++OOO+++...........          ",
"            ...ooooOO+OO+++++OOO+++++++OOooo..........          ",
"            ...oXoooO+++++++++oO++++++OOoooX..........          ",
"            ....XoooXoooOOOOOooooOOOOOooooooXX.......           ",
"             ....XXXXooooOOOOooooooOOoooooooXX......            ",
"              .....XXoooooXXXoooooooooXXooooX....               ",
"                ....XXXooXXXoooXXXoooXXXXXX.....                ",
"                .....XX..XX.....XXXXXXX.........                ",
"                 ..............................                 ",
"                  ............................                  ",
"                    .......           ......                    ",
"                     ...                ...                     ",
"                                                                ",
"                                                                ",
"                                                                ",
"                                                                ",
"                                                                ",
"                                                                ",
"                                                                ",
"                                                                ",
"                                                                ",
"                                                                ",
"                                                                ",
"                                                                "
};
