/* XPM */
static char *f94ec2d2ddd14b2eea1869055ac561c3LEmDDO9CIhhuaoA0[] = {
/* columns rows colors chars-per-pixel */
"64 64 6 1 ",
"  c 0x0FFFF",
". c #161C2E",
"X c #977B6B",
"o c #E3C18C",
"O c #EFE1AB",
"+ c white",
/* pixels */
"                                                                ",
"                                                                ",
"                                                                ",
"                                                                ",
"                                                                ",
"                                                                ",
"                                                                ",
"                                                                ",
"                                                                ",
"                                                                ",
"                                                                ",
"                                                                ",
"                                                                ",
"                                                                ",
"                                                                ",
"                                                                ",
"                                                                ",
"                                                                ",
"                                                                ",
"                                                                ",
"                                                                ",
"                                                                ",
"                                                                ",
"                                                                ",
"                                                                ",
"                                                                ",
"                                                                ",
"                        .......   ......                        ",
"                    .......................                     ",
"             ...........++++++.....+++.........                 ",
"            ...........++++++++O++++++++.........               ",
"            ...OO+++OOO+++++++OO++++++++Oo++++....              ",
"          ....O++++++OO+++++++oo++++++++oo+++++....             ",
"        .....oO+++++++++OOOOoooO+++++OoooO+++++O.........       ",
"        ....+ooOO++++++OOOooO++OOOOOOOOOOO+++++OO.........      ",
"       ....+++oooOO++++Ooooo++++++OOO++++OO+++Oooo.........     ",
"       ..++++++ooo+++++++ooo++++++OOO++++++OOOOoo....... ..     ",
"      ...++++++++o+++++++ooo++++++OO+++++++OOOO.........        ",
"      ...++++++OOO++++++OOOOOOOOOOOOO++++OOOOo...........       ",
"      ...OO+++OOOOO++OO+++++OO++++OOoOOOO....o........++..      ",
"      ...OOOOO++++OOO+++++++++++++++oooO.....O........+...      ",
"      ...oOOOO+++++OO+++++++++++++++oooo....O+...++++.++...     ",
"      ...ooOoO+++++oo+++++++o+++++++oOOO...+++...++.+......     ",
"      ...ooOoOOoooooOOOOOOOooooOOOOOOOOO...+++.............     ",
"       ...oOooOOOOOOO+++++OOOOOO+++++OOOO++++O.............     ",
"       ....ooooOOO+OO+++++++OOO+++++++++OOooooo............     ",
"       ....oXooooO+++++++++++oO+++++++OOOooooXX............     ",
"        .....XXXXXXooooOOOOOoooooOOOOoooooooooXXX.........      ",
"         ......XXXooooooXXXXooooooooooXXXoooooX......           ",
"          .......XXXoooXXXooooXXXXoooXXXXXXXX.......            ",
"           ........................................             ",
"             ....................................               ",
"                                                                ",
"                                                                ",
"                                                                ",
"                                                                ",
"                                                                ",
"                                                                ",
"                                                                ",
"                                                                ",
"                                                                ",
"                                                                ",
"                                                                ",
"                                                                "
};
