/* XPM */
static char *_9f75e6e2129481e9547e711ec95bc04dRzfXvbW34xRcFP9[] = {
/* columns rows colors chars-per-pixel */
"64 64 6 1 ",
"  c 0x0FFFF",
". c #161C2E",
"X c #977B6B",
"o c #E3C18C",
"O c #EFE1AB",
"+ c white",
/* pixels */
"                                                                ",
"                                                                ",
"                                                                ",
"                                                                ",
"                                                                ",
"                                                                ",
"                                                                ",
"                                                                ",
"                                                                ",
"                                                                ",
"                                                                ",
"                                                                ",
"                                      .......                   ",
"                          .....    ............                 ",
"                 .....   .......................    ..          ",
"                ...........++...........OOO.....    ..          ",
"              ....OO+....++++++....++++Oo+++++...  ...          ",
"             ....OO++++OO+++++++O++++++Oo+++++...  ...          ",
"             ....OO++++OO++++++++++++++oo++++OO.......          ",
"            .....oO++++++++++++oo+++++oo..+++OOo......          ",
"            ....+ooO++++++++++oo++++++oo..+++ooo......          ",
"           ....+++ooO++++OOOOooo+++++OOO...OOO........          ",
"           ...+++++oo++++OoOoO++OO+OOO++...OO.........          ",
"           ...++++++o++++Oooo+++++OOO+++....o.......++.         ",
"           ...++++++o++++++oo+++++OOO++++...O.......++.         ",
"           ...++++++o++++++oo+++++OOO++++OOOO.......+..         ",
"           ...oO++OOO++++++oo+++++OO+++++OOOO...+++.++..        ",
"           ...oOO+OOO++++++OoO++OOOO++++OOOOO...+.+.....        ",
"           ...oOOO++OO++++OOOOOOOOOOO+OOoOOO+...........        ",
"            ..oOOO+++OO++++++OO+++OOoOoooO+++...........        ",
"            ..ooOOO+++OO++++++++++++ooooO++++...........        ",
"            ..ooOOOOOOoo++++++++++++ooOOO++++O..........        ",
"            ...oooOooooo+++++o++++++oOOO++++Oo..........        ",
"            ...oooOOOOOOO+++oo+++OooOOOO+++oooX........         ",
"            ...oooOOOOOOO+++oo+++OooOOOO+++oooX........         ",
"            ....XooOOOO++OOOOOOOOOOOOOOOOooXXXX.......          ",
"             ...XoooO+++++++OOOOO++++++OooooXXX..               ",
"              ...ooXXo+++++++OOO++++++OoooooXX...               ",
"               ...XXXoooO+++++oO++++++ooooooX...                ",
"                ...XXoooOOOOOooooOOOOOoXooXX....                ",
"                ....XXoooOOOOooooooOOoXXXXXX...                 ",
"                 ....XXooXXXXoooooooooXXXXX...                  ",
"                  ....XXXXXXoooXXXoooXXXXX......                ",
"                 .....XXXXXXoooXXXoooXXXX.......                ",
"                 .......XXX.....XXXXXXX.........                ",
"                 ...............................                ",
"                  ....  ..................  ...                 ",
"                                                                ",
"                                                                ",
"                                                                ",
"                                                                ",
"                                                                ",
"                                                                ",
"                                                                ",
"                                                                ",
"                                                                ",
"                                                                ",
"                                                                ",
"                                                                ",
"                                                                ",
"                                                                ",
"                                                                ",
"                                                                ",
"                                                                "
};
