/* XPM */
static char *_159686dd14e40ca93fc8515fd0dd798OqHoSyFlj1DhVSds[] = {
/* columns rows colors chars-per-pixel */
"64 64 6 1 ",
"  c 0x0FFFF",
". c #161C2E",
"X c #977B6B",
"o c #E3C18C",
"O c #EFE1AB",
"+ c white",
/* pixels */
"                                                                ",
"                                                                ",
"                                                                ",
"                                                                ",
"                                                                ",
"                                                                ",
"                                                                ",
"                                                                ",
"                                                                ",
"                          .....   ....                          ",
"                        ...............                         ",
"                       ..................                       ",
"                     ......++..............                     ",
"                  ........+++++...+++........                   ",
"                 .......O+++++++O+++++.......                   ",
"                 ...O+++O+++++++++++++Oo++....                  ",
"                 ...O+++O+++++++++++++Oo+++...                  ",
"                ...O++++O++++++oo+++++oo+++...                  ",
"                ..OO++++++++++oo+++++ooo++++...                 ",
"               ...oO++++++OOOooo++++OooO+++O......              ",
"               ...ooO++++OoOoO++O+OOOOOO+++OO......             ",
"              ...++ooOO++Oooo++++OOO++++O+Ooo......             ",
"             ....++ooOO++Oooo++++OOO++++O+Oo.......             ",
"             ..+++++oo+++++oo++++OOO+++++OOo..... .             ",
"             ..++++++o+++++oo++++OO++..++........               ",
"             ..++++++o+++++OoO++OOO+...+O........               ",
"             ..+++++OO++++OOOOOOOOOO...O..........              ",
"             ..O+++OOOO+O++++OO++OOo..OO.......++.              ",
"             ...OOO+++OO+++++++++++o..oo.......+..              ",
"             ...OOO+++OO+++++++++++o..oo...+++.++..             ",
"              ..oOO++++O+++++++++++oo.oO...+.+.....             ",
"              ..ooO++++o+++++o+++++oOOOO...........             ",
"              ..ooOOOOOo++++oo+++ooOOOO+...........             ",
"              ..OoOOooooOOOOOOOOOOOOOOO+...........             ",
"              ..OooOOOOO++++OOOOO+++OOO++..........             ",
"              ..OooOOOOO++++OOOOO+++OOO++..........             ",
"              ..ooooOO+O+++++OOO++++++OOooo.......              ",
"              ..oXoooO++++++++oO+++++OOoooX......               ",
"              ...XoooXooOOOOOooooOOOOoooooXXX...                ",
"              ....XXXXoooOOOOoooooOOooooooXXX..                 ",
"               .....XXooooXXXooooooooXXoooX....                 ",
"               .....XXooooXXXooooooooXXoooX....                 ",
"                .....XXXoXXXoooXXoooXXXXXX....                  ",
"                 .....X..XX.....XXXXXX........                  ",
"                  ...........................                   ",
"                   .........................                    ",
"                     ......          .......                    ",
"                     .....            .....                     ",
"                      ...              ...                      ",
"                                                                ",
"                                                                ",
"                                                                ",
"                                                                ",
"                                                                ",
"                                                                ",
"                                                                ",
"                                                                ",
"                                                                ",
"                                                                ",
"                                                                ",
"                                                                ",
"                                                                ",
"                                                                ",
"                                                                "
};
