/* XPM */
static char *bd2f609e93764802be0e62d6519f1fbbdswSCfgted8CPsAH[] = {
/* columns rows colors chars-per-pixel */
"64 64 6 1 ",
"  c 0x0FFFF",
". c #161C2E",
"X c #27716F",
"o c #2F966A",
"O c #5AB659",
"+ c #BDD763",
/* pixels */
"                                                                ",
"                                                                ",
"                                                                ",
"                                                                ",
"                                                                ",
"                                                                ",
"                                                                ",
"                                                                ",
"                                                                ",
"                                                                ",
"                                                                ",
"                                                                ",
"                                                                ",
"                                                                ",
"                                                                ",
"                                 .                              ",
"                                 .                              ",
"                                 .                              ",
"                                ..                              ",
"                                ..                              ",
"                                ...                             ",
"                               ....                             ",
"                               ....                             ",
"                               .++.                             ",
"                              ..++..                            ",
"                              ..+++.                            ",
"                             ..++++..                           ",
"                             ..++++..                           ",
"                             .++++++..                          ",
"                            ..++++++..                          ",
"                            .+++++++O..                         ",
"                           ..+++++++O..                         ",
"                           ..+++++++OO..                        ",
"                           ..++++++++O..                        ",
"                          ..+++++++++O..                        ",
"                          ..++++++++++O..                       ",
"                         ..O++++++++++O..                       ",
"                         .O+++++++++++O...                      ",
"                        ..O++++++++++++O..                      ",
"                        .OO+++O++++O+++O...                     ",
"                       ..O++++O++++O+++OO..                     ",
"                       .OO++++O+++OOO+++O...                    ",
"                      ..O++++O++++OOO+++Oo..                    ",
"                      ..O+++OO+++OOOOO+++O..                    ",
"                     ..O+++OOO++OO+OOOO++Oo..                   ",
"                     ..O+++OO++OOO+OOOOO+Ooo..                  ",
"                    ..O+++OOO+OOO++OOOOOOOOo..                  ",
"                    ..O+OOOOOOOOO++OOoOOOOOoo..                 ",
"                   ..OOOOOOOOOOO++OOOoOOOOOOoo..                ",
"                   ..OOOOOOOOOO++OOOOooOOOOOoo..                ",
"                  ..OOOOOOOOOOO+OOOOOooOOOOOOoo..               ",
"                  ..OOOOOOOOOOOOOO+OOOooOOOOOOoo.               ",
"                 ..OOOOOOOOoOOOOO++OOOoo.OOOOOoo..              ",
"                 ..OOOOOOOooOOOOO+OOOOOoo.OoOOOoo..             ",
"                ..oOOOOOOOoOOOOO+OOOOOOOo..ooOOooo..            ",
"               ..oOOOOOOoooOOOOO+OOOOOOOoo..ooOOooo..           ",
"              ..ooOOOOOoooOOOOOOOOOOOOOOOoo..ooooooo..          ",
"             ..oooOOOOoo.OOOOOOOOOOOOOOOOooo...ooooooo...       ",
"           ...oooOOOooo..OOOOOOOOOOOOOOOOOooX...ooooooo..       ",
"       .....oooooOOooo..OOOOOOOoOOOOoOOOOOOoo.....oooo...       ",
"       .ooooooooOOoo...XOOOOOOXooOOOooOOOOOooX..........        ",
"       ...ooooOOoo.....XOOOOOXXooOOOooooOOOOoXXX......          ",
"       .....ooooo.....XOOOOXXXoOooOOoooooOOOoXXX..              ",
"        .............XXOOOXXXoOOoooOooooooooooXXX..             "
};
