/* XPM */
static char *_966f3f0d1094f01ac4ebe519986bb6fIVwtCqt3uRZM5HOh[] = {
/* columns rows colors chars-per-pixel */
"64 64 5 1 ",
"  c 0x0FFFF",
". c #161C2E",
"X c #866353",
"o c #B48355",
"O c #DAB570",
/* pixels */
"                                                                ",
"                                                                ",
"                                                                ",
"                                                                ",
"                                                                ",
"                                                                ",
"                                                                ",
"                                                                ",
"                                                                ",
"                                                                ",
"                                                                ",
"                                                                ",
"                                                                ",
"                                                                ",
"                                                                ",
"                                                                ",
"                                                                ",
"                                                                ",
"                                                                ",
"                                                                ",
"                                                                ",
"                                                                ",
"                                                                ",
"                                                                ",
"                                                                ",
"                                                                ",
"                                                                ",
"                            .......                             ",
"                         .............                          ",
"                       ......OOOOOOO....                        ",
"                       ..OOoXXOoooXXOO...                       ",
"                      ..oOXoOOoOOOOooOO..                       ",
"                      ..OOXOOOoooOOooOOo..                      ",
"                      ..OOooOOOOOOOoOOOo..                      ",
"                      ..oOOooooooXXOOOOO..                      ",
"                      ...OOOOOOOOOOOOoo...                      ",
"                      .X...XXXXOOOXXoo..o.                      ",
"                      .X.ooXoXoooXXoooXoo.                      ",
"                      .XXooooXooooXoooXo..                      ",
"                      .XXoXooXoooo.oooXX..                      ",
"                     ...XoXooooooo.oooXXX..                     ",
"                     ...XXXooooooO.XoooXXX.                     ",
"                    ....oXXXooooOO.XoOo.XX..                    ",
"                   .....ooX..oooOOXooOo.XX..                    ",
"                  ..XX..ooX..oooOoXooOO.XXX..                   ",
"                 ...XX.oOoo.XoooOo.ooOO..XXX..                  ",
"                ...oX..oOoo.XXoooo.XoOOX.XXoo.                  ",
"                  oo...OOo..XXXXXX..ooOo.XXooo.                 ",
"                  oo..oOOo..XXXXXoo..ooo.X..ooo.                ",
"                  o..XoOo...XoX.ooo..ooo.X .....                ",
"                  ..ooooo..ooo..oooo..ooo.                      ",
"                    oooo...oo...Xoooo.ooo.                      ",
"                     ooo..oo...   ooo..                         ",
"                       ..oo                                     ",
"                                                                ",
"                                                                ",
"                                                                ",
"                                                                ",
"                                                                ",
"                                                                ",
"                                                                ",
"                                                                ",
"                                                                ",
"                                                                "
};
